<svg xmlns="http://www.w3.org/2000/svg" viewBox="0 0 350 350"><defs><style>.cls-1{opacity:0.22;}.cls-2{fill:#8eb6dc;}.cls-3,.cls-6,.cls-7{fill:none;stroke-linejoin:round;}.cls-3{stroke:#d6d6d6;stroke-width:0.75px;}.cls-4{fill:#5cffd9;}.cls-5{fill:#fff;}.cls-6,.cls-7{stroke:#1470ad;stroke-linecap:round;}.cls-6{stroke-width:0.3px;}</style></defs><title>gentle density diagram</title><g id="lot_fill" data-name="lot fill" class="cls-1"><polygon class="cls-2" points="36.66 216.53 219.94 110.71 328.69 173.5 145.4 279.32 36.66 216.53"/></g><g id="lot"><polyline class="cls-3" points="56.49 205.08 36.66 216.53 145.4 279.32 328.69 173.5 219.94 110.71 173.25 137.67"/></g><g id="_2_attach_garage" data-name="2 attach garage"><polygon class="cls-4" points="104.81 166.07 87.85 175.86 92.33 178.44 92.33 178.45 92.33 191.85 56.49 184.12 92.39 163.39 104.81 166.07"/><polygon class="cls-4" points="66.83 197.28 66.83 205.94 61.95 203.12 61.95 194.46 66.83 197.28"/><polygon class="cls-4" points="71.7 200.09 71.7 208.76 66.83 205.94 66.83 197.28 71.7 200.09"/><polygon class="cls-4" points="86.14 206.93 86.14 224.14 78.39 219.66 78.39 202.45 86.14 206.93"/><path class="cls-4" d="M92.33,191.85v35.86l-6.19-3.57V206.93l-7.75-4.48v17.21L56.49,207v-22.9ZM71.7,208.76v-8.67l-4.87-2.81L62,194.46v8.66l4.88,2.82Z"/><polygon class="cls-5" points="106.15 220.23 106.15 228.72 99.71 225 99.71 216.51 106.15 220.23"/><polygon class="cls-5" points="106.15 211.73 106.15 220.23 99.71 216.51 99.71 208.01 106.15 211.73"/><polygon class="cls-5" points="112.6 223.95 112.6 232.44 106.15 228.72 106.15 220.23 112.6 223.95"/><polygon class="cls-5" points="106.28 191.35 106.28 200.01 101.4 197.19 101.4 188.53 106.28 191.34 106.28 191.35"/><polygon class="cls-5" points="134.64 207.62 134.64 216.44 129.76 213.62 129.76 204.8 134.64 207.62"/><polygon class="cls-5" points="139.51 210.44 139.51 219.25 134.64 216.44 134.64 207.62 139.51 210.44"/><polygon class="cls-5" points="112.6 215.46 112.6 223.95 106.15 220.23 106.15 211.73 112.6 215.46"/><polygon class="cls-5" points="111.16 194.16 111.16 202.82 106.28 200.01 106.28 191.35 111.16 194.16"/><polygon class="cls-5" points="119.35 242.86 135.93 252.43 135.93 254.59 119.43 245.06 119.42 245.06 119.35 245.02 119.35 243.31 119.35 242.86"/><polygon class="cls-5" points="117.01 248.61 133.59 258.18 131.35 259.47 114.77 249.9 117.01 248.61"/><polygon class="cls-5" points="117.01 248.61 117.01 246.45 133.59 256.02 133.59 258.18 117.01 248.61"/><polygon class="cls-5" points="138 229.51 138 247.62 129.07 242.46 129.07 224.35 138 229.51"/><polygon class="cls-5" points="133.59 256.02 117.01 246.45 119.42 245.06 119.43 245.06 135.93 254.59 133.59 256.02"/><path class="cls-5" d="M119.35,242.86v.45l-27-15.6V178.45l60.65,35v49.27l-11.77-6.8v-6.46L138,247.62V229.51l-8.93-5.16v18.11l-4.44-2.56Zm20.16-23.61v-8.81l-4.87-2.82-4.88-2.82v8.82l4.88,2.82ZM112.6,232.44v-17l-6.45-3.73L99.71,208v17l6.44,3.72Zm-1.44-29.62v-8.66l-4.88-2.81h0l-4.88-2.81v8.66l4.88,2.82Z"/><polygon class="cls-5" points="114.77 249.9 131.35 259.47 131.35 261.62 114.77 252.05 114.77 249.9"/><polygon class="cls-5" points="138 247.62 141.21 249.47 135.93 252.43 119.35 242.86 124.63 239.9 129.07 242.46 138 247.62"/><polygon class="cls-5" points="141.21 253.78 141.21 255.93 131.35 261.62 131.35 259.47 133.59 258.18 133.59 256.02 135.93 254.59 135.93 252.43 141.21 249.47 141.21 251.62 141.21 253.78"/><polygon class="cls-5" points="177.91 206.02 177.91 214.86 173.02 217.69 173.02 208.85 173.02 208.84 177.91 206.02"/><polygon class="cls-5" points="201.06 212.25 201.06 221.09 196.17 223.91 196.17 215.07 201.06 212.25"/><polygon class="cls-5" points="205.95 209.42 205.95 218.26 201.06 221.09 201.06 212.25 201.06 212.24 205.95 209.42"/><polygon class="cls-5" points="205.95 189.89 205.95 198.74 201.06 201.56 201.06 192.72 205.95 189.89"/><polygon class="cls-5" points="201.06 192.72 201.06 201.56 196.17 204.38 196.17 195.54 201.06 192.72"/><polygon class="cls-5" points="177.91 225.55 177.91 234.39 173.02 237.21 173.02 228.37 177.91 225.55"/><polygon class="cls-5" points="173.02 237.21 168.13 240.04 168.13 231.19 173.02 228.37 173.02 237.21"/><polygon class="cls-5" points="173.02 208.85 173.02 217.69 168.13 220.51 168.13 211.67 173.02 208.85"/><path class="cls-5" d="M216.6,176.74V226L153,262.73V213.46ZM206,218.26v-8.84l-4.89,2.82h0l-4.89,2.82v8.84l4.89-2.82Zm0-19.52v-8.85l-4.89,2.83-4.89,2.82v8.84l4.89-2.82Zm-28,35.65v-8.84L173,228.37l-4.89,2.82V240l4.89-2.83Zm0-19.53V206L173,208.84h0l-4.89,2.82v8.84l4.89-2.82Z"/><polygon class="cls-5" points="221.08 174.15 216.6 176.73 216.6 176.74 152.98 213.46 136.26 159.66 174.24 137.74 221.08 174.15"/><polygon class="cls-5" points="136.26 159.66 152.98 213.46 92.33 178.45 92.33 178.44 87.85 175.86 136.26 159.66"/><polygon class="cls-5" points="174.24 137.74 136.26 159.66 87.85 175.86 104.81 166.07 155.95 136.55 174.24 137.74"/><polyline class="cls-6" points="141.21 249.47 138 247.62 129.07 242.46 124.63 239.9"/><line class="cls-6" x1="119.43" y1="245.06" x2="135.93" y2="254.59"/><line class="cls-6" x1="119.35" y1="245.02" x2="119.42" y2="245.06"/><line class="cls-6" x1="119.35" y1="242.86" x2="135.93" y2="252.43"/><polyline class="cls-6" points="119.35 245.02 119.35 243.31 119.35 242.86"/><line class="cls-6" x1="135.93" y1="252.43" x2="141.21" y2="249.47"/><polyline class="cls-6" points="92.33 227.71 92.33 191.85 92.33 178.45"/><polyline class="cls-6" points="87.85 175.86 92.33 178.44 92.33 178.45 152.98 213.46"/><line class="cls-6" x1="133.59" y1="256.02" x2="135.93" y2="254.59"/><polyline class="cls-6" points="155.95 136.55 104.81 166.07 87.85 175.86"/><line class="cls-6" x1="174.24" y1="137.74" x2="155.95" y2="136.55"/><line class="cls-6" x1="87.85" y1="175.86" x2="136.26" y2="159.66"/><line class="cls-6" x1="216.6" y1="176.74" x2="152.98" y2="213.46"/><line class="cls-6" x1="221.08" y1="174.15" x2="216.6" y2="176.73"/><line class="cls-6" x1="117.01" y1="248.61" x2="114.77" y2="249.9"/><line class="cls-6" x1="141.21" y1="255.93" x2="152.98" y2="262.73"/><line class="cls-6" x1="114.77" y1="249.9" x2="131.35" y2="259.47"/><line class="cls-6" x1="131.35" y1="259.47" x2="133.59" y2="258.18"/><line class="cls-6" x1="141.21" y1="255.93" x2="141.21" y2="253.78"/><line class="cls-6" x1="131.35" y1="261.62" x2="141.21" y2="255.93"/><line class="cls-6" x1="174.24" y1="137.74" x2="221.08" y2="174.15"/><line class="cls-6" x1="117.01" y1="248.61" x2="133.59" y2="258.18"/><line class="cls-6" x1="133.59" y1="258.18" x2="133.59" y2="256.02"/><line class="cls-6" x1="117.01" y1="248.61" x2="117.01" y2="246.45"/><line class="cls-6" x1="141.21" y1="253.78" x2="141.21" y2="251.62"/><line class="cls-6" x1="92.33" y1="227.71" x2="119.35" y2="243.31"/><line class="cls-6" x1="152.98" y1="262.73" x2="216.6" y2="226"/><polygon class="cls-6" points="201.06 201.56 205.95 198.74 205.95 189.89 201.06 192.72 196.17 195.54 196.17 204.38 201.06 201.56"/><line class="cls-6" x1="201.06" y1="192.72" x2="201.06" y2="201.56"/><line class="cls-6" x1="173.02" y1="208.85" x2="173.02" y2="217.69"/><polygon class="cls-6" points="173.02 208.85 168.13 211.67 168.13 220.51 173.02 217.69 177.91 214.86 177.91 206.02 173.02 208.84 173.02 208.85"/><polyline class="cls-6" points="201.06 212.25 196.17 215.07 196.17 223.91 201.06 221.09 205.95 218.26 205.95 209.42 201.06 212.24"/><polyline class="cls-6" points="201.06 212.24 201.06 212.25 201.06 221.09"/><line class="cls-6" x1="173.02" y1="228.37" x2="173.02" y2="237.21"/><polygon class="cls-6" points="173.02 228.37 168.13 231.19 168.13 240.04 173.02 237.21 177.91 234.39 177.91 225.55 173.02 228.37"/><line class="cls-6" x1="106.28" y1="191.35" x2="106.28" y2="200.01"/><polyline class="cls-6" points="129.07 242.52 129.07 242.46 129.07 224.35 138 229.51 138 247.62 138 247.68"/><polyline class="cls-6" points="106.15 211.73 106.15 220.23 106.15 228.72"/><polyline class="cls-6" points="99.71 216.51 106.15 220.23 112.6 223.95"/><line class="cls-6" x1="134.64" y1="207.62" x2="134.64" y2="216.44"/><polygon class="cls-6" points="106.28 200.01 111.16 202.82 111.16 194.16 106.28 191.35 106.28 191.34 101.4 188.53 101.4 197.19 106.28 200.01"/><polygon class="cls-6" points="112.6 223.95 112.6 215.46 106.15 211.73 99.71 208.01 99.71 216.51 99.71 225 106.15 228.72 112.6 232.44 112.6 223.95"/><polygon class="cls-6" points="134.64 207.62 129.76 204.8 129.76 213.62 134.64 216.44 139.51 219.25 139.51 210.44 134.64 207.62"/><line class="cls-6" x1="114.77" y1="252.05" x2="114.77" y2="249.9"/><polyline class="cls-6" points="216.6 226 216.6 176.74 216.6 176.73"/><line class="cls-6" x1="131.35" y1="261.62" x2="131.35" y2="259.47"/><line class="cls-6" x1="152.98" y1="262.73" x2="152.98" y2="213.46"/><line class="cls-6" x1="141.21" y1="251.62" x2="141.21" y2="249.47"/><line class="cls-6" x1="114.77" y1="252.05" x2="131.35" y2="261.62"/><line class="cls-6" x1="136.26" y1="159.66" x2="174.24" y2="137.74"/><line class="cls-6" x1="152.98" y1="213.46" x2="136.26" y2="159.66"/><polyline class="cls-6" points="119.43 245.06 119.42 245.06 117.01 246.45"/><line class="cls-6" x1="135.93" y1="254.59" x2="135.93" y2="252.43"/><line class="cls-6" x1="124.63" y1="239.9" x2="119.35" y2="242.86"/><line class="cls-6" x1="117.01" y1="246.45" x2="133.59" y2="256.02"/><line class="cls-6" x1="56.49" y1="207.02" x2="56.49" y2="184.12"/><line class="cls-6" x1="66.83" y1="197.28" x2="66.83" y2="205.94"/><polyline class="cls-6" points="78.39 219.73 78.39 219.66 78.39 202.45 86.14 206.93 86.14 224.14 86.14 224.2"/><line class="cls-6" x1="92.39" y1="163.39" x2="104.81" y2="166.07"/><line class="cls-6" x1="56.49" y1="184.12" x2="92.33" y2="191.85"/><line class="cls-6" x1="56.49" y1="184.12" x2="92.39" y2="163.39"/><polyline class="cls-6" points="56.49 207.02 78.39 219.66 86.14 224.14 92.33 227.71"/><polygon class="cls-6" points="66.83 205.94 71.7 208.76 71.7 200.09 66.83 197.28 61.95 194.46 61.95 203.12 66.83 205.94"/></g><g id="outline"><polygon class="cls-7" points="221.08 174.15 174.24 137.74 155.95 136.55 87.85 175.86 92.33 178.44 92.33 227.71 119.35 243.31 119.35 245.02 119.42 245.06 117.01 246.45 117.01 248.61 114.77 249.9 114.77 252.06 131.35 261.63 141.21 255.93 152.98 262.73 216.6 226 216.6 176.74 221.08 174.15"/><polyline class="cls-7" points="104.81 166.07 92.39 163.4 56.49 184.12 56.49 207.02 92.39 227.75"/></g></svg>