<svg xmlns="http://www.w3.org/2000/svg" viewBox="0 0 350 350"><defs><style>.cls-1{opacity:0.22;}.cls-2{fill:#8eb6dc;}.cls-3{fill:#5cffd9;}.cls-10,.cls-12,.cls-4,.cls-5,.cls-6,.cls-7,.cls-8,.cls-9{fill:none;stroke-linejoin:round;}.cls-4{stroke:#d6d6d6;stroke-width:0.75px;}.cls-10,.cls-12,.cls-5,.cls-6,.cls-7,.cls-8,.cls-9{stroke:#1470ad;}.cls-5,.cls-6,.cls-7,.cls-8,.cls-9{stroke-linecap:square;}.cls-6{stroke-dasharray:4.13 4.13;}.cls-7{stroke-dasharray:4.13 4.13;}.cls-8{stroke-dasharray:5 5;}.cls-9{stroke-dasharray:5.27 5.27;}.cls-10,.cls-12{stroke-linecap:round;}.cls-10{stroke-width:0.3px;}.cls-11{fill:#fff;}</style></defs><title>gentle density diagram</title><g id="lot_fill" data-name="lot fill" class="cls-1"><polygon class="cls-2" points="36.66 216.53 219.94 110.72 328.69 173.5 145.4 279.32 36.66 216.53"/></g><g id="_1_basement_con::basement_fill" data-name="1 basement con::basement fill"><polygon class="cls-3" points="216.6 251.65 216.6 226 152.98 262.73 141.21 255.93 131.35 261.62 114.77 252.05 114.77 249.9 117.01 248.61 117.01 246.45 119.42 245.06 119.35 245.02 119.35 243.31 92.33 227.71 92.33 253.36 152.98 288.38 216.6 251.65"/></g><g id="lot"><line class="cls-4" x1="187.19" y1="129.63" x2="173.25" y2="137.67"/><polyline class="cls-4" points="92.33 184.39 36.66 216.53 145.4 279.32 328.69 173.5 249.91 128.02"/></g><g id="_1_basement_con::basement" data-name="1 basement con::basement"><line class="cls-5" x1="92.33" y1="227.71" x2="92.33" y2="230.21"/><line class="cls-6" x1="92.33" y1="234.34" x2="92.33" y2="248.79"/><line class="cls-5" x1="92.33" y1="250.86" x2="92.33" y2="253.36"/><line class="cls-5" x1="152.98" y1="262.73" x2="152.98" y2="265.23"/><line class="cls-7" x1="152.98" y1="269.36" x2="152.98" y2="283.81"/><line class="cls-5" x1="152.98" y1="285.88" x2="152.98" y2="288.38"/><line class="cls-5" x1="92.33" y1="253.36" x2="94.5" y2="254.61"/><line class="cls-8" x1="98.83" y1="257.11" x2="148.65" y2="285.87"/><polyline class="cls-5" points="150.82 287.13 152.98 288.38 155.15 287.13"/><line class="cls-9" x1="159.71" y1="284.49" x2="212.16" y2="254.22"/><line class="cls-5" x1="214.44" y1="252.9" x2="216.6" y2="251.65"/><line class="cls-5" x1="216.6" y1="226" x2="216.6" y2="228.5"/><line class="cls-6" x1="216.6" y1="232.63" x2="216.6" y2="247.08"/><line class="cls-5" x1="216.6" y1="249.15" x2="216.6" y2="251.65"/></g><g id="_1_basement_con::house" data-name="1 basement con::house"><line class="cls-10" x1="174.24" y1="137.74" x2="155.95" y2="136.55"/><polygon class="cls-11" points="205.95 189.89 205.95 198.74 201.06 201.56 201.06 192.72 205.95 189.89"/><polygon class="cls-11" points="201.06 192.72 201.06 201.56 196.17 204.38 196.17 195.54 201.06 192.72"/><polygon class="cls-11" points="173.02 237.21 168.13 240.04 168.13 231.19 173.02 228.37 173.02 237.21"/><polygon class="cls-11" points="205.95 209.42 205.95 218.26 201.06 221.09 201.06 212.25 201.06 212.24 205.95 209.42"/><polygon class="cls-11" points="177.91 206.02 177.91 214.86 173.02 217.69 173.02 208.85 173.02 208.84 177.91 206.02"/><polygon class="cls-11" points="173.02 208.85 173.02 217.69 168.13 220.51 168.13 211.67 173.02 208.85"/><polygon class="cls-11" points="201.06 212.25 201.06 221.09 196.17 223.91 196.17 215.07 201.06 212.25"/><polygon class="cls-11" points="177.91 225.55 177.91 234.39 173.02 237.21 173.02 228.37 177.91 225.55"/><polygon class="cls-11" points="106.15 211.74 106.15 220.23 99.71 216.51 99.71 208.01 106.15 211.74"/><polygon class="cls-11" points="106.15 220.23 106.15 228.72 99.71 225 99.71 216.51 106.15 220.23"/><polygon class="cls-11" points="112.6 223.95 112.6 232.44 106.15 228.72 106.15 220.23 112.6 223.95"/><polygon class="cls-11" points="112.6 215.46 112.6 223.95 106.15 220.23 106.15 211.74 112.6 215.46"/><polygon class="cls-11" points="134.63 207.62 134.63 216.43 129.76 213.62 129.76 204.8 134.63 207.62"/><polygon class="cls-11" points="139.51 210.44 139.51 219.25 134.63 216.44 134.63 216.43 134.63 207.62 139.51 210.44"/><polygon class="cls-11" points="106.28 191.34 106.28 200.01 101.4 197.19 101.4 188.52 106.28 191.34"/><polygon class="cls-11" points="111.16 194.16 111.16 202.82 106.28 200.01 106.28 191.34 111.16 194.16"/><polygon class="cls-11" points="141.21 253.78 141.21 255.93 131.35 261.62 131.35 259.47 133.59 258.18 133.59 256.02 135.93 254.59 135.93 252.43 141.21 249.47 141.21 251.62 141.21 253.78"/><polygon class="cls-11" points="138 247.62 141.21 249.47 135.93 252.43 119.35 242.86 124.63 239.9 129.07 242.46 138 247.62"/><polygon class="cls-11" points="119.42 245.06 135.93 254.59 133.59 256.02 117.01 246.45 119.42 245.06"/><polygon class="cls-11" points="135.93 252.43 135.93 254.59 119.42 245.06 119.35 245.02 119.35 243.31 119.35 242.86 135.93 252.43"/><polygon class="cls-11" points="138 229.51 138 247.62 129.07 242.46 129.07 224.35 138 229.51"/><polygon class="cls-11" points="133.59 256.02 133.59 258.18 117.01 248.61 117.01 246.45 133.59 256.02"/><polygon class="cls-11" points="117.01 248.61 133.59 258.18 131.35 259.47 114.77 249.9 117.01 248.61"/><polygon class="cls-11" points="114.77 249.9 131.35 259.47 131.35 261.62 114.77 252.05 114.77 249.9"/><path class="cls-11" d="M216.6,176.74V226L153,262.73V213.46ZM206,218.26v-8.84l-4.89,2.82h0l-4.89,2.82v8.84l4.89-2.82Zm0-19.52v-8.85l-4.89,2.83-4.89,2.82v8.84l4.89-2.82Zm-28,35.65v-8.84L173,228.37l-4.89,2.82V240l4.89-2.83Zm0-19.53V206L173,208.84h0l-4.89,2.82v8.84l4.89-2.82Z"/><path class="cls-11" d="M119.35,242.86v.45l-27-15.6V178.45l60.65,35v49.27l-11.77-6.8v-6.46L138,247.62V229.51l-8.93-5.16v18.11l-4.44-2.56Zm20.16-23.61v-8.81l-4.88-2.82-4.87-2.82v8.82l4.87,2.81h0ZM112.6,232.44v-17l-6.45-3.72L99.71,208v17l6.44,3.72Zm-1.44-29.62v-8.66l-4.88-2.82-4.88-2.82v8.67l4.88,2.82Z"/><polygon class="cls-11" points="136.26 159.66 152.98 213.46 92.33 178.45 92.33 178.44 87.85 175.86 136.26 159.66"/><polygon class="cls-11" points="221.08 174.15 216.6 176.73 216.6 176.74 152.98 213.46 136.26 159.66 174.24 137.74 221.08 174.15"/><polyline class="cls-10" points="173.02 208.85 168.13 211.67 168.13 220.51 173.02 217.69 177.91 214.86 177.91 206.02 173.02 208.84"/><polyline class="cls-10" points="201.06 212.25 196.17 215.07 196.17 223.91 201.06 221.09 205.95 218.26 205.95 209.42 201.06 212.24"/><polyline class="cls-10" points="173.02 208.84 173.02 208.85 173.02 217.69"/><line class="cls-10" x1="173.02" y1="228.37" x2="173.02" y2="237.21"/><line class="cls-10" x1="92.33" y1="227.71" x2="92.33" y2="178.45"/><line class="cls-10" x1="119.42" y1="245.06" x2="117.01" y2="246.45"/><polyline class="cls-10" points="119.35 245.02 119.42 245.06 135.93 254.59"/><polyline class="cls-10" points="119.35 245.02 119.35 243.31 119.35 242.86"/><line class="cls-10" x1="152.98" y1="213.46" x2="136.26" y2="159.66"/><line class="cls-10" x1="136.26" y1="159.66" x2="174.24" y2="137.74"/><line class="cls-10" x1="216.6" y1="176.74" x2="152.98" y2="213.46"/><line class="cls-10" x1="221.08" y1="174.15" x2="216.6" y2="176.73"/><polyline class="cls-10" points="87.85 175.86 92.33 178.44 92.33 178.45 152.98 213.46"/><polygon class="cls-10" points="173.02 228.37 168.13 231.19 168.13 240.04 173.02 237.21 177.91 234.39 177.91 225.55 173.02 228.37"/><line class="cls-10" x1="201.06" y1="192.72" x2="201.06" y2="201.56"/><line class="cls-10" x1="106.28" y1="191.34" x2="106.28" y2="200.01"/><polyline class="cls-10" points="201.06 212.24 201.06 212.25 201.06 221.09"/><line class="cls-10" x1="114.77" y1="252.05" x2="131.35" y2="261.62"/><polyline class="cls-10" points="129.07 242.52 129.07 242.46 129.07 224.35 138 229.51 138 247.62 138 247.68"/><line class="cls-10" x1="131.35" y1="261.62" x2="131.35" y2="259.47"/><line class="cls-10" x1="114.77" y1="252.05" x2="114.77" y2="249.9"/><line class="cls-10" x1="131.35" y1="261.62" x2="141.21" y2="255.93"/><line class="cls-10" x1="141.21" y1="255.93" x2="141.21" y2="253.78"/><line class="cls-10" x1="114.77" y1="249.9" x2="131.35" y2="259.47"/><line class="cls-10" x1="92.33" y1="227.71" x2="119.35" y2="243.31"/><line class="cls-10" x1="152.98" y1="262.73" x2="216.6" y2="226"/><polyline class="cls-10" points="216.6 226 216.6 176.74 216.6 176.73"/><line class="cls-10" x1="152.98" y1="262.73" x2="152.98" y2="213.46"/><line class="cls-10" x1="141.21" y1="255.93" x2="152.98" y2="262.73"/><line class="cls-10" x1="133.59" y1="256.02" x2="135.93" y2="254.59"/><line class="cls-10" x1="131.35" y1="259.47" x2="133.59" y2="258.18"/><polyline class="cls-10" points="106.15 211.74 106.15 220.23 106.15 228.72"/><polyline class="cls-10" points="99.71 216.51 106.15 220.23 112.6 223.95"/><line class="cls-10" x1="87.85" y1="175.86" x2="136.26" y2="159.66"/><line class="cls-10" x1="155.95" y1="136.55" x2="87.85" y2="175.86"/><line class="cls-10" x1="174.24" y1="137.74" x2="221.08" y2="174.15"/><line class="cls-10" x1="134.63" y1="207.62" x2="134.63" y2="216.43"/><polygon class="cls-10" points="106.28 200.01 111.16 202.82 111.16 194.16 106.28 191.34 101.4 188.52 101.4 197.19 106.28 200.01"/><polygon class="cls-10" points="112.6 223.95 112.6 215.46 106.15 211.74 99.71 208.01 99.71 216.51 99.71 225 106.15 228.72 112.6 232.44 112.6 223.95"/><polygon class="cls-10" points="134.63 207.62 129.76 204.8 129.76 213.62 134.63 216.43 134.63 216.44 139.51 219.25 139.51 210.44 134.63 207.62"/><line class="cls-10" x1="117.01" y1="248.61" x2="133.59" y2="258.18"/><line class="cls-10" x1="135.93" y1="252.43" x2="141.21" y2="249.47"/><line class="cls-10" x1="119.35" y1="242.86" x2="135.93" y2="252.43"/><line class="cls-10" x1="117.01" y1="246.45" x2="133.59" y2="256.02"/><line class="cls-10" x1="117.01" y1="248.61" x2="114.77" y2="249.9"/><line class="cls-10" x1="124.63" y1="239.9" x2="119.35" y2="242.86"/><polyline class="cls-10" points="141.21 249.47 138 247.62 129.07 242.46 124.63 239.9"/><line class="cls-10" x1="141.21" y1="251.62" x2="141.21" y2="249.47"/><line class="cls-10" x1="135.93" y1="254.59" x2="135.93" y2="252.43"/><line class="cls-10" x1="141.21" y1="253.78" x2="141.21" y2="251.62"/><line class="cls-10" x1="117.01" y1="248.61" x2="117.01" y2="246.45"/><line class="cls-10" x1="133.59" y1="258.18" x2="133.59" y2="256.02"/><polygon class="cls-10" points="201.06 201.56 205.95 198.74 205.95 189.89 201.06 192.72 196.17 195.54 196.17 204.38 201.06 201.56"/></g><g id="_1_basement_con::garage" data-name="1 basement con::garage"><polygon class="cls-11" points="211.88 147.62 211.88 150.24 211.86 150.27 189.26 137.22 189.26 134.56 211.88 147.62"/><polygon class="cls-11" points="189.26 134.56 189.26 131.98 211.88 145.04 211.88 147.62 189.26 134.56"/><polygon class="cls-11" points="189.26 131.98 189.26 129.41 211.88 142.46 211.88 145.04 189.26 131.98"/><polygon class="cls-11" points="211.88 139.89 211.88 142.46 189.26 129.41 189.26 126.83 211.88 139.89"/><polygon class="cls-11" points="189.26 124.25 211.88 137.31 211.88 139.89 189.26 126.83 189.26 124.25"/><polygon class="cls-11" points="211.88 134.73 211.88 137.31 189.26 124.25 189.26 121.68 211.88 134.73"/><polygon class="cls-11" points="187.19 136.02 187.19 116.3 214 131.78 214 151.5 211.86 150.27 211.88 150.24 211.88 147.62 211.88 145.04 211.88 142.46 211.88 139.89 211.88 137.31 211.88 134.73 189.26 121.68 189.26 124.25 189.26 126.83 189.26 129.41 189.26 131.98 189.26 134.56 189.26 137.22 187.19 136.02"/><polygon class="cls-11" points="200.59 116.33 214 131.78 187.19 116.3 200.59 116.33"/><polygon class="cls-11" points="249.91 111.05 249.91 130.77 214 151.5 214 131.78 249.91 111.05"/><polygon class="cls-11" points="236.5 95.6 249.91 111.05 214 131.78 200.59 116.33 236.5 95.6"/><line class="cls-10" x1="211.88" y1="147.62" x2="189.26" y2="134.56"/><line class="cls-10" x1="211.88" y1="145.04" x2="189.26" y2="131.98"/><line class="cls-10" x1="211.88" y1="142.46" x2="189.26" y2="129.41"/><line class="cls-10" x1="211.88" y1="139.89" x2="189.26" y2="126.83"/><line class="cls-10" x1="211.88" y1="137.31" x2="189.26" y2="124.25"/><polyline class="cls-10" points="211.88 134.7 211.88 134.73 211.88 137.31 211.88 139.89 211.88 142.46 211.88 145.04 211.88 147.62 211.88 150.24"/><line class="cls-10" x1="223.09" y1="95.57" x2="236.5" y2="95.6"/><line class="cls-10" x1="187.19" y1="116.3" x2="223.09" y2="95.57"/><line class="cls-10" x1="236.5" y1="95.6" x2="249.91" y2="111.05"/><line class="cls-10" x1="200.59" y1="116.33" x2="214" y2="131.78"/><polyline class="cls-10" points="187.19 136.02 189.26 137.22 211.86 150.27 214 151.5"/><polyline class="cls-10" points="211.88 134.73 189.26 121.68 189.26 124.25 189.26 126.83 189.26 129.41 189.26 131.98 189.26 134.56 189.26 137.22 189.26 137.33"/><line class="cls-10" x1="214" y1="151.5" x2="249.91" y2="130.77"/><line class="cls-10" x1="249.91" y1="130.77" x2="249.91" y2="111.05"/><line class="cls-10" x1="214" y1="151.5" x2="214" y2="131.78"/><line class="cls-10" x1="200.59" y1="116.33" x2="236.5" y2="95.6"/><line class="cls-10" x1="214" y1="131.78" x2="187.19" y2="116.3"/><line class="cls-10" x1="249.91" y1="111.05" x2="214" y2="131.78"/><line class="cls-10" x1="187.19" y1="136.02" x2="187.19" y2="116.3"/><line class="cls-10" x1="187.19" y1="116.3" x2="200.59" y2="116.33"/></g><g id="outline"><polygon class="cls-12" points="114.77 252.05 131.35 261.62 141.21 255.93 152.98 262.73 216.6 226 216.6 176.73 221.08 174.15 174.24 137.74 155.95 136.55 87.85 175.86 92.33 178.44 92.33 227.71 119.35 243.31 119.35 245.02 119.42 245.06 117.01 246.45 117.01 248.61 114.77 249.9 114.77 252.05"/></g></svg>