<svg xmlns="http://www.w3.org/2000/svg" viewBox="0 0 350 350"><defs><style>.cls-1{opacity:0.22;}.cls-2{fill:#8eb6dc;}.cls-3,.cls-4,.cls-7,.cls-8,.cls-9{fill:none;}.cls-3{stroke:#d6d6d6;stroke-width:0.75px;}.cls-3,.cls-4,.cls-7,.cls-9{stroke-linejoin:round;}.cls-4,.cls-7,.cls-8,.cls-9{stroke:#1470ad;}.cls-4,.cls-8,.cls-9{stroke-linecap:round;}.cls-4{stroke-width:0.3px;}.cls-5{fill:#5cffd9;}.cls-6{fill:#fff;}.cls-7{stroke-linecap:square;}.cls-8{stroke-miterlimit:10;}</style></defs><title>gentle density diagram</title><g id="lot_fill" data-name="lot fill" class="cls-1"><polygon class="cls-2" points="36.66 216.53 219.94 110.71 328.69 173.5 145.4 279.32 36.66 216.53"/></g><g id="lot"><line class="cls-3" x1="187.19" y1="129.63" x2="173.25" y2="137.67"/><polyline class="cls-3" points="92.33 184.39 36.66 216.53 145.4 279.32 328.69 173.5 249.91 128.02"/></g><g id="_3_vertical_split::house" data-name="3 vertical split::house"><line class="cls-4" x1="174.24" y1="137.74" x2="155.95" y2="136.55"/><polygon class="cls-5" points="205.95 189.89 205.95 198.74 201.06 201.56 201.06 192.72 205.95 189.89"/><polygon class="cls-5" points="177.91 225.55 177.91 234.39 173.02 237.21 173.02 228.37 177.91 225.55"/><polygon class="cls-5" points="205.95 209.42 205.95 218.26 201.06 221.09 201.06 212.25 201.06 212.24 205.95 209.42"/><polygon class="cls-5" points="201.06 212.25 201.06 221.09 196.17 223.91 196.17 215.07 201.06 212.25"/><polygon class="cls-5" points="201.06 192.72 201.06 201.56 196.17 204.38 196.17 195.54 201.06 192.72"/><polygon class="cls-5" points="173.02 237.21 168.13 240.04 168.13 231.19 173.02 228.37 173.02 237.21"/><polygon class="cls-5" points="177.91 206.02 177.91 214.86 173.02 217.69 173.02 208.85 173.02 208.84 177.91 206.02"/><polygon class="cls-5" points="173.02 208.85 173.02 217.69 168.13 220.51 168.13 211.67 173.02 208.85"/><path class="cls-5" d="M216.6,176.74V226L153,262.73V213.46ZM206,218.26v-8.84l-4.89,2.82h0l-4.89,2.82v8.84l4.89-2.82Zm0-19.52v-8.85l-4.89,2.83-4.89,2.82v8.84l4.89-2.82Zm-28,35.65v-8.84L173,228.37l-4.89,2.82V240l4.89-2.83Zm0-19.53V206L173,208.84h0l-4.89,2.82v8.84l4.89-2.82Z"/><polygon class="cls-5" points="135.95 210.05 135.95 218.86 131.07 216.05 131.07 207.23 135.95 210.05"/><polygon class="cls-5" points="135.6 250.54 135.6 252.69 125.74 258.39 125.74 256.23 127.98 254.94 127.98 252.78 130.28 251.33 130.28 249.17 135.6 246.23 135.6 248.38 135.6 250.54"/><polygon class="cls-5" points="136.26 159.66 152.98 213.46 122.87 196.08 136.26 159.66"/><polygon class="cls-5" points="140.83 212.87 140.83 221.68 135.95 218.86 135.95 210.05 140.83 212.87"/><polygon class="cls-5" points="135.6 246.23 130.28 249.17 117.47 241.78 122.79 238.84 125.5 240.4 132.8 244.61 135.6 246.23"/><polygon class="cls-5" points="125.74 256.23 125.74 258.39 112.93 250.99 112.93 248.84 125.74 256.23"/><polygon class="cls-5" points="127.98 252.78 127.98 254.94 115.17 247.54 115.17 245.39 127.98 252.78"/><polygon class="cls-5" points="132.8 226.44 132.8 244.61 125.5 240.4 125.5 222.23 132.8 226.44"/><polygon class="cls-5" points="130.28 249.17 130.28 251.33 117.47 243.93 117.47 241.78 130.28 249.17"/><polygon class="cls-5" points="117.47 243.93 130.28 251.33 127.98 252.78 115.17 245.39 117.47 243.93"/><polygon class="cls-5" points="127.98 254.94 125.74 256.23 112.93 248.84 115.17 247.54 127.98 254.94"/><path class="cls-5" d="M125.5,222.23V240.4l-2.71-1.56h0l.08-42.75L153,213.46v49.27l-17.38-10v-6.46l-2.8-1.62V226.44Zm15.33-.55v-8.81L136,210.05l-4.88-2.82v8.82l4.88,2.81Z"/><polygon class="cls-5" points="221.08 174.15 216.6 176.73 216.6 176.74 152.98 213.46 136.26 159.66 174.24 137.74 221.08 174.15"/><polygon class="cls-6" points="100.13 241.45 112.93 248.84 112.93 250.99 100.13 243.6 100.13 241.45"/><polygon class="cls-6" points="104.67 234.39 117.47 241.78 117.47 243.93 104.78 236.6 104.67 236.54 104.67 234.84 104.67 234.39"/><polygon class="cls-6" points="122.79 238.83 122.79 238.84 117.47 241.78 104.67 234.39 109.99 231.44 112.63 232.96 112.63 232.97 119.93 237.18 122.79 238.83"/><polygon class="cls-6" points="112.93 248.84 100.13 241.45 102.37 240.15 115.17 247.54 112.93 248.84"/><polygon class="cls-6" points="117.47 243.93 115.17 245.39 102.37 238 104.78 236.6 117.47 243.93"/><polygon class="cls-6" points="102.37 238 115.17 245.39 115.17 247.54 102.37 240.15 102.37 238"/><polygon class="cls-6" points="108.03 194.44 108.03 203.1 103.15 200.28 103.15 191.62 108.03 194.44"/><polygon class="cls-6" points="112.9 197.25 112.9 205.92 108.03 203.1 108.03 194.44 112.9 197.25"/><polygon class="cls-6" points="119.93 219.01 119.93 237.18 112.63 232.97 112.63 232.96 112.63 214.8 119.93 219.01"/><path class="cls-6" d="M108,194.44l-4.88-2.82v8.66L108,203.1l4.87,2.82v-8.67Zm-3.36,40.4-12.34-7.13V178.45l30.54,17.63-.08,42.75-2.86-1.65V219l-7.3-4.21V233L110,231.44l-5.32,2.95Z"/><polygon class="cls-6" points="136.26 159.66 122.87 196.08 92.33 178.45 92.33 178.44 87.85 175.86 136.26 159.66"/><line class="cls-4" x1="112.63" y1="232.96" x2="109.99" y2="231.44"/><polyline class="cls-4" points="122.79 238.83 119.93 237.18 112.63 232.97"/><polyline class="cls-4" points="135.6 246.23 132.8 244.61 125.5 240.4 122.79 238.84"/><line class="cls-4" x1="135.6" y1="248.38" x2="135.6" y2="246.23"/><line class="cls-4" x1="87.85" y1="175.86" x2="136.26" y2="159.66"/><line class="cls-4" x1="125.74" y1="258.39" x2="135.6" y2="252.69"/><line class="cls-4" x1="135.6" y1="252.69" x2="135.6" y2="250.54"/><line class="cls-4" x1="125.74" y1="256.23" x2="127.98" y2="254.94"/><polyline class="cls-4" points="100.13 241.45 112.93 248.84 125.74 256.23"/><line class="cls-4" x1="102.37" y1="240.15" x2="100.13" y2="241.45"/><polyline class="cls-4" points="104.67 234.39 117.47 241.78 130.28 249.17"/><polygon class="cls-4" points="108.03 203.1 112.9 205.92 112.9 197.25 108.03 194.44 103.15 191.62 103.15 200.28 108.03 203.1"/><polyline class="cls-4" points="108.03 194.43 108.03 194.44 108.03 203.1"/><line class="cls-4" x1="109.99" y1="231.44" x2="104.67" y2="234.39"/><line class="cls-4" x1="130.28" y1="251.33" x2="130.28" y2="249.17"/><polyline class="cls-4" points="104.67 236.54 104.78 236.6 117.47 243.93 130.28 251.33"/><polyline class="cls-4" points="92.33 178.45 122.87 196.08 152.98 213.46"/><line class="cls-4" x1="87.85" y1="175.86" x2="92.33" y2="178.44"/><polyline class="cls-4" points="102.37 240.15 115.17 247.54 127.98 254.94"/><line class="cls-4" x1="127.98" y1="254.94" x2="127.98" y2="252.78"/><line class="cls-4" x1="102.37" y1="240.15" x2="102.37" y2="238"/><line class="cls-4" x1="135.95" y1="210.05" x2="135.95" y2="218.86"/><line class="cls-4" x1="100.13" y1="243.6" x2="100.13" y2="241.45"/><line class="cls-4" x1="216.6" y1="176.74" x2="152.98" y2="213.46"/><line class="cls-4" x1="221.08" y1="174.15" x2="216.6" y2="176.73"/><polyline class="cls-4" points="92.33 227.71 92.33 178.45 92.33 178.44"/><line class="cls-4" x1="104.78" y1="236.6" x2="102.37" y2="238"/><polyline class="cls-4" points="100.13 243.6 112.93 250.99 125.74 258.39"/><line class="cls-4" x1="135.6" y1="252.69" x2="152.98" y2="262.73"/><polyline class="cls-4" points="102.37 238 115.17 245.39 127.98 252.78"/><line class="cls-4" x1="130.28" y1="249.17" x2="135.6" y2="246.23"/><line class="cls-4" x1="127.98" y1="252.78" x2="130.28" y2="251.33"/><line class="cls-4" x1="136.26" y1="159.66" x2="174.24" y2="137.74"/><polyline class="cls-4" points="104.67 236.54 104.67 234.84 104.67 234.39"/><line class="cls-4" x1="152.98" y1="213.46" x2="136.26" y2="159.66"/><line class="cls-4" x1="155.95" y1="136.55" x2="87.85" y2="175.86"/><line class="cls-4" x1="174.24" y1="137.74" x2="221.08" y2="174.15"/><polyline class="cls-4" points="112.63 232.97 112.63 232.96 112.63 214.8 119.93 219.01 119.93 237.18"/><polyline class="cls-4" points="125.5 240.4 125.5 222.23 132.8 226.44 132.8 244.61"/><polygon class="cls-4" points="173.02 228.37 168.13 231.19 168.13 240.04 173.02 237.21 177.91 234.39 177.91 225.55 173.02 228.37"/><line class="cls-4" x1="173.02" y1="228.37" x2="173.02" y2="237.21"/><line class="cls-4" x1="201.06" y1="212.25" x2="201.06" y2="221.09"/><polygon class="cls-4" points="201.06 221.09 205.95 218.26 205.95 209.42 201.06 212.24 201.06 212.25 196.17 215.07 196.17 223.91 201.06 221.09"/><polyline class="cls-4" points="173.02 208.85 168.13 211.67 168.13 220.51 173.02 217.69 177.91 214.86 177.91 206.02 173.02 208.84"/><polyline class="cls-4" points="173.02 208.84 173.02 208.85 173.02 217.69"/><line class="cls-4" x1="201.06" y1="192.72" x2="201.06" y2="201.56"/><polygon class="cls-4" points="201.06 201.56 205.95 198.74 205.95 189.89 201.06 192.72 196.17 195.54 196.17 204.38 201.06 201.56"/><polygon class="cls-4" points="135.95 210.05 131.07 207.23 131.07 216.05 135.95 218.86 140.83 221.68 140.83 212.87 135.95 210.05"/><line class="cls-4" x1="125.74" y1="258.39" x2="125.74" y2="256.23"/><line class="cls-4" x1="152.98" y1="262.73" x2="152.98" y2="213.46"/><polyline class="cls-4" points="216.6 226 216.6 176.74 216.6 176.73"/><line class="cls-4" x1="152.98" y1="262.73" x2="216.6" y2="226"/><line class="cls-4" x1="92.33" y1="227.71" x2="104.67" y2="234.84"/><line class="cls-4" x1="135.6" y1="250.54" x2="135.6" y2="248.38"/></g><g id="_3_vertical_split::garage" data-name="3 vertical split::garage"><polygon class="cls-6" points="236.5 95.6 200.59 116.33 187.19 116.3 223.09 95.57 236.5 95.6"/><polygon class="cls-6" points="189.27 129.41 211.88 142.46 211.88 145.04 189.27 131.98 189.27 129.41"/><polygon class="cls-6" points="200.59 116.33 214 131.78 187.19 116.3 200.59 116.33"/><polygon class="cls-6" points="211.88 134.73 211.88 137.31 189.27 124.25 189.27 121.68 211.88 134.73"/><polygon class="cls-6" points="211.88 147.62 211.88 150.24 211.86 150.27 189.27 137.22 189.27 134.56 211.88 147.62"/><polygon class="cls-6" points="211.88 150.24 211.88 147.62 211.88 145.04 211.88 142.46 211.88 139.89 211.88 137.31 211.88 134.73 189.27 121.68 189.27 124.25 189.27 126.83 189.27 129.41 189.27 131.98 189.27 134.56 189.27 137.22 187.19 136.02 187.19 116.3 214 131.78 214 151.5 211.86 150.27 211.88 150.24"/><polygon class="cls-6" points="211.88 139.89 211.88 142.46 189.27 129.41 189.27 126.83 211.88 139.89"/><polygon class="cls-6" points="189.27 124.25 211.88 137.31 211.88 139.89 189.27 126.83 189.27 124.25"/><polygon class="cls-6" points="189.27 131.98 211.88 145.04 211.88 147.62 189.27 134.56 189.27 131.98"/><polygon class="cls-6" points="249.91 111.05 249.91 130.77 214 151.5 214 131.78 249.91 111.05"/><polygon class="cls-6" points="236.5 95.6 249.91 111.05 214 131.78 200.59 116.33 236.5 95.6"/><line class="cls-4" x1="187.19" y1="116.3" x2="223.09" y2="95.57"/><line class="cls-4" x1="214" y1="151.5" x2="249.91" y2="130.77"/><line class="cls-4" x1="214" y1="151.5" x2="214" y2="131.78"/><line class="cls-4" x1="236.5" y1="95.6" x2="249.91" y2="111.05"/><line class="cls-4" x1="200.59" y1="116.33" x2="214" y2="131.78"/><line class="cls-4" x1="200.59" y1="116.33" x2="236.5" y2="95.6"/><line class="cls-4" x1="214" y1="131.78" x2="249.91" y2="111.05"/><line class="cls-4" x1="214" y1="131.78" x2="187.19" y2="116.3"/><polyline class="cls-4" points="211.88 134.73 189.27 121.68 189.27 124.25 189.27 126.83 189.27 129.41 189.27 131.98 189.27 134.56 189.27 137.22 189.27 137.34"/><line class="cls-4" x1="211.88" y1="147.62" x2="189.27" y2="134.56"/><line class="cls-4" x1="211.88" y1="145.04" x2="189.27" y2="131.98"/><line class="cls-4" x1="211.88" y1="142.46" x2="189.27" y2="129.41"/><line class="cls-4" x1="211.88" y1="139.89" x2="189.27" y2="126.83"/><line class="cls-4" x1="211.88" y1="137.31" x2="189.27" y2="124.25"/><polyline class="cls-4" points="211.88 134.7 211.88 134.73 211.88 137.31 211.88 139.89 211.88 142.46 211.88 145.04 211.88 147.62 211.88 150.24"/><line class="cls-4" x1="187.19" y1="116.3" x2="200.59" y2="116.33"/><line class="cls-4" x1="223.09" y1="95.57" x2="236.5" y2="95.6"/><line class="cls-4" x1="187.19" y1="136.02" x2="187.19" y2="116.3"/><line class="cls-4" x1="249.91" y1="130.77" x2="249.91" y2="111.05"/><polyline class="cls-4" points="187.19 136.02 189.27 137.22 211.86 150.27 214 151.5"/></g><g id="_3_vertical_split::split" data-name="3 vertical split::split"><polyline class="cls-7" points="136.26 159.66 122.87 196.07 122.79 238.84 117.47 241.78 117.47 243.93 115.17 245.39 115.17 247.54 112.93 248.84 112.93 250.71"/><line class="cls-8" x1="136.26" y1="159.66" x2="174.24" y2="137.74"/></g><g id="outline"><polygon class="cls-9" points="100.13 243.6 125.74 258.38 135.6 252.69 152.98 262.73 216.6 226 216.6 176.74 221.08 174.15 174.24 137.74 155.95 136.55 87.85 175.86 92.33 178.44 92.33 227.71 104.67 234.84 104.67 236.54 104.78 236.6 102.37 238 102.37 240.15 100.13 241.44 100.13 243.6"/></g></svg>