<?xml version="1.0" encoding="UTF-8" standalone="no"?>
<svg
   viewBox="0 0 350 250"
   version="1.1"
   id="svg76"
   sodipodi:docname="adu-attached-garage.svg"
   width="350"
   height="250"
   inkscape:version="1.3.2 (1:1.3.2+202311252150+091e20ef0f)"
   xmlns:inkscape="http://www.inkscape.org/namespaces/inkscape"
   xmlns:sodipodi="http://sodipodi.sourceforge.net/DTD/sodipodi-0.dtd"
   xmlns="http://www.w3.org/2000/svg"
   xmlns:svg="http://www.w3.org/2000/svg"
   xmlns:rdf="http://www.w3.org/1999/02/22-rdf-syntax-ns#"
   xmlns:cc="http://creativecommons.org/ns#"
   xmlns:dc="http://purl.org/dc/elements/1.1/">
  <sodipodi:namedview
     id="namedview76"
     pagecolor="#ffffff"
     bordercolor="#666666"
     borderopacity="1.0"
     inkscape:showpageshadow="2"
     inkscape:pageopacity="0.0"
     inkscape:pagecheckerboard="0"
     inkscape:deskcolor="#d1d1d1"
     inkscape:zoom="2"
     inkscape:cx="56"
     inkscape:cy="180.75"
     inkscape:window-width="1280"
     inkscape:window-height="1403"
     inkscape:window-x="20"
     inkscape:window-y="20"
     inkscape:window-maximized="0"
     inkscape:current-layer="svg76" />
  <defs
     id="defs1">
    <style
       id="style1">.cls-1{opacity:0.22;}.cls-2{fill:#8eb6dc;}.cls-3,.cls-6,.cls-7{fill:none;stroke-linejoin:round;}.cls-3{stroke:#d6d6d6;stroke-width:0.75px;}.cls-4{fill:#5cffd9;}.cls-5{fill:#fff;}.cls-6,.cls-7{stroke:#1470ad;stroke-linecap:round;}.cls-6{stroke-width:0.3px;}</style>
  </defs>
  <title
     id="title1">gentle density diagram</title>
  <g
     id="lot_fill"
     data-name="lot fill"
     class="cls-1"
     transform="translate(0,-62.294921)">
    <polygon
       class="cls-2"
       points="219.94,110.71 328.69,173.5 145.4,279.32 36.66,216.53 "
       id="polygon1" />
  </g>
  <g
     id="lot"
     transform="translate(0,-62.294921)">
    <polyline
       class="cls-3"
       points="56.49 205.08 36.66 216.53 145.4 279.32 328.69 173.5 219.94 110.71 173.25 137.67"
       id="polyline1" />
  </g>
  <g
     id="_2_attach_garage"
     data-name="2 attach garage"
     transform="translate(0,-62.294921)">
    <polygon
       class="cls-4"
       points="56.49,184.12 92.39,163.39 104.81,166.07 87.85,175.86 92.33,178.44 92.33,178.45 92.33,191.85 "
       id="polygon2" />
    <polygon
       class="cls-4"
       points="66.83,205.94 61.95,203.12 61.95,194.46 66.83,197.28 "
       id="polygon3" />
    <polygon
       class="cls-4"
       points="71.7,208.76 66.83,205.94 66.83,197.28 71.7,200.09 "
       id="polygon4" />
    <polygon
       class="cls-4"
       points="86.14,224.14 78.39,219.66 78.39,202.45 86.14,206.93 "
       id="polygon5" />
    <path
       class="cls-4"
       d="m 92.33,191.85 v 35.86 l -6.19,-3.57 v -17.21 l -7.75,-4.48 v 17.21 L 56.49,207 V 184.1 Z M 71.7,208.76 v -8.67 L 66.83,197.28 62,194.46 v 8.66 l 4.88,2.82 z"
       id="path5" />
    <polygon
       class="cls-5"
       points="106.15,228.72 99.71,225 99.71,216.51 106.15,220.23 "
       id="polygon6" />
    <polygon
       class="cls-5"
       points="106.15,220.23 99.71,216.51 99.71,208.01 106.15,211.73 "
       id="polygon7" />
    <polygon
       class="cls-5"
       points="112.6,232.44 106.15,228.72 106.15,220.23 112.6,223.95 "
       id="polygon8" />
    <polygon
       class="cls-5"
       points="106.28,191.35 106.28,200.01 101.4,197.19 101.4,188.53 106.28,191.34 "
       id="polygon9" />
    <polygon
       class="cls-5"
       points="134.64,216.44 129.76,213.62 129.76,204.8 134.64,207.62 "
       id="polygon10" />
    <polygon
       class="cls-5"
       points="139.51,219.25 134.64,216.44 134.64,207.62 139.51,210.44 "
       id="polygon11" />
    <polygon
       class="cls-5"
       points="112.6,223.95 106.15,220.23 106.15,211.73 112.6,215.46 "
       id="polygon12" />
    <polygon
       class="cls-5"
       points="111.16,202.82 106.28,200.01 106.28,191.35 111.16,194.16 "
       id="polygon13" />
    <polygon
       class="cls-5"
       points="119.35,245.02 119.35,243.31 119.35,242.86 135.93,252.43 135.93,254.59 119.43,245.06 119.42,245.06 "
       id="polygon14" />
    <polygon
       class="cls-5"
       points="133.59,258.18 131.35,259.47 114.77,249.9 117.01,248.61 "
       id="polygon15" />
    <polygon
       class="cls-5"
       points="117.01,246.45 133.59,256.02 133.59,258.18 117.01,248.61 "
       id="polygon16" />
    <polygon
       class="cls-5"
       points="138,247.62 129.07,242.46 129.07,224.35 138,229.51 "
       id="polygon17" />
    <polygon
       class="cls-5"
       points="133.59,256.02 117.01,246.45 119.42,245.06 119.43,245.06 135.93,254.59 "
       id="polygon18" />
    <path
       class="cls-5"
       d="m 119.35,242.86 v 0.45 l -27,-15.6 v -49.26 l 60.65,35 v 49.27 l -11.77,-6.8 v -6.46 L 138,247.62 v -18.11 l -8.93,-5.16 v 18.11 l -4.44,-2.56 z m 20.16,-23.61 v -8.81 l -4.87,-2.82 -4.88,-2.82 v 8.82 l 4.88,2.82 z m -26.91,13.19 v -17 l -6.45,-3.73 -6.44,-3.71 v 17 l 6.44,3.72 z m -1.44,-29.62 v -8.66 l -4.88,-2.81 v 0 l -4.88,-2.81 v 8.66 l 4.88,2.82 z"
       id="path18" />
    <polygon
       class="cls-5"
       points="131.35,259.47 131.35,261.62 114.77,252.05 114.77,249.9 "
       id="polygon19" />
    <polygon
       class="cls-5"
       points="129.07,242.46 138,247.62 141.21,249.47 135.93,252.43 119.35,242.86 124.63,239.9 "
       id="polygon20" />
    <polygon
       class="cls-5"
       points="133.59,256.02 135.93,254.59 135.93,252.43 141.21,249.47 141.21,251.62 141.21,253.78 141.21,255.93 131.35,261.62 131.35,259.47 133.59,258.18 "
       id="polygon21" />
    <polygon
       class="cls-5"
       points="177.91,206.02 177.91,214.86 173.02,217.69 173.02,208.85 173.02,208.84 "
       id="polygon22" />
    <polygon
       class="cls-5"
       points="201.06,221.09 196.17,223.91 196.17,215.07 201.06,212.25 "
       id="polygon23" />
    <polygon
       class="cls-5"
       points="205.95,209.42 205.95,218.26 201.06,221.09 201.06,212.25 201.06,212.24 "
       id="polygon24" />
    <polygon
       class="cls-5"
       points="205.95,198.74 201.06,201.56 201.06,192.72 205.95,189.89 "
       id="polygon25" />
    <polygon
       class="cls-5"
       points="201.06,201.56 196.17,204.38 196.17,195.54 201.06,192.72 "
       id="polygon26" />
    <polygon
       class="cls-5"
       points="177.91,234.39 173.02,237.21 173.02,228.37 177.91,225.55 "
       id="polygon27" />
    <polygon
       class="cls-5"
       points="168.13,240.04 168.13,231.19 173.02,228.37 173.02,237.21 "
       id="polygon28" />
    <polygon
       class="cls-5"
       points="173.02,217.69 168.13,220.51 168.13,211.67 173.02,208.85 "
       id="polygon29" />
    <path
       class="cls-5"
       d="M 216.6,176.74 V 226 L 153,262.73 V 213.46 Z M 206,218.26 v -8.84 l -4.89,2.82 v 0 l -4.89,2.82 v 8.84 l 4.89,-2.82 z m 0,-19.52 v -8.85 l -4.89,2.83 -4.89,2.82 v 8.84 l 4.89,-2.82 z m -28,35.65 v -8.84 l -5,2.82 -4.89,2.82 V 240 l 4.89,-2.83 z m 0,-19.53 V 206 l -5,2.84 v 0 l -4.89,2.82 v 8.84 l 4.89,-2.82 z"
       id="path29" />
    <polygon
       class="cls-5"
       points="174.24,137.74 221.08,174.15 216.6,176.73 216.6,176.74 152.98,213.46 136.26,159.66 "
       id="polygon30" />
    <polygon
       class="cls-5"
       points="136.26,159.66 152.98,213.46 92.33,178.45 92.33,178.44 87.85,175.86 "
       id="polygon31" />
    <polygon
       class="cls-5"
       points="174.24,137.74 136.26,159.66 87.85,175.86 104.81,166.07 155.95,136.55 "
       id="polygon32" />
    <polyline
       class="cls-6"
       points="141.21 249.47 138 247.62 129.07 242.46 124.63 239.9"
       id="polyline32" />
    <line
       class="cls-6"
       x1="119.43"
       y1="245.06"
       x2="135.92999"
       y2="254.59"
       id="line32" />
    <line
       class="cls-6"
       x1="119.35"
       y1="245.02"
       x2="119.42"
       y2="245.06"
       id="line33" />
    <line
       class="cls-6"
       x1="119.35"
       y1="242.86"
       x2="135.92999"
       y2="252.42999"
       id="line34" />
    <polyline
       class="cls-6"
       points="119.35 245.02 119.35 243.31 119.35 242.86"
       id="polyline34" />
    <line
       class="cls-6"
       x1="135.92999"
       y1="252.42999"
       x2="141.21001"
       y2="249.47"
       id="line35" />
    <polyline
       class="cls-6"
       points="92.33 227.71 92.33 191.85 92.33 178.45"
       id="polyline35" />
    <polyline
       class="cls-6"
       points="87.85 175.86 92.33 178.44 92.33 178.45 152.98 213.46"
       id="polyline36" />
    <line
       class="cls-6"
       x1="133.59"
       y1="256.01999"
       x2="135.92999"
       y2="254.59"
       id="line36" />
    <polyline
       class="cls-6"
       points="155.95 136.55 104.81 166.07 87.85 175.86"
       id="polyline37" />
    <line
       class="cls-6"
       x1="174.24001"
       y1="137.74001"
       x2="155.95"
       y2="136.55"
       id="line37" />
    <line
       class="cls-6"
       x1="87.849998"
       y1="175.86"
       x2="136.25999"
       y2="159.66"
       id="line38" />
    <line
       class="cls-6"
       x1="216.60001"
       y1="176.74001"
       x2="152.98"
       y2="213.46001"
       id="line39" />
    <line
       class="cls-6"
       x1="221.08"
       y1="174.14999"
       x2="216.60001"
       y2="176.73"
       id="line40" />
    <line
       class="cls-6"
       x1="117.01"
       y1="248.61"
       x2="114.77"
       y2="249.89999"
       id="line41" />
    <line
       class="cls-6"
       x1="141.21001"
       y1="255.92999"
       x2="152.98"
       y2="262.73001"
       id="line42" />
    <line
       class="cls-6"
       x1="114.77"
       y1="249.89999"
       x2="131.35001"
       y2="259.47"
       id="line43" />
    <line
       class="cls-6"
       x1="131.35001"
       y1="259.47"
       x2="133.59"
       y2="258.17999"
       id="line44" />
    <line
       class="cls-6"
       x1="141.21001"
       y1="255.92999"
       x2="141.21001"
       y2="253.78"
       id="line45" />
    <line
       class="cls-6"
       x1="131.35001"
       y1="261.62"
       x2="141.21001"
       y2="255.92999"
       id="line46" />
    <line
       class="cls-6"
       x1="174.24001"
       y1="137.74001"
       x2="221.08"
       y2="174.14999"
       id="line47" />
    <line
       class="cls-6"
       x1="117.01"
       y1="248.61"
       x2="133.59"
       y2="258.17999"
       id="line48" />
    <line
       class="cls-6"
       x1="133.59"
       y1="258.17999"
       x2="133.59"
       y2="256.01999"
       id="line49" />
    <line
       class="cls-6"
       x1="117.01"
       y1="248.61"
       x2="117.01"
       y2="246.45"
       id="line50" />
    <line
       class="cls-6"
       x1="141.21001"
       y1="253.78"
       x2="141.21001"
       y2="251.62"
       id="line51" />
    <line
       class="cls-6"
       x1="92.330002"
       y1="227.71001"
       x2="119.35"
       y2="243.31"
       id="line52" />
    <line
       class="cls-6"
       x1="152.98"
       y1="262.73001"
       x2="216.60001"
       y2="226"
       id="line53" />
    <polygon
       class="cls-6"
       points="196.17,204.38 201.06,201.56 205.95,198.74 205.95,189.89 201.06,192.72 196.17,195.54 "
       id="polygon53" />
    <line
       class="cls-6"
       x1="201.06"
       y1="192.72"
       x2="201.06"
       y2="201.56"
       id="line54" />
    <line
       class="cls-6"
       x1="173.02"
       y1="208.85001"
       x2="173.02"
       y2="217.69"
       id="line55" />
    <polygon
       class="cls-6"
       points="177.91,206.02 173.02,208.84 173.02,208.85 168.13,211.67 168.13,220.51 173.02,217.69 177.91,214.86 "
       id="polygon55" />
    <polyline
       class="cls-6"
       points="201.06 212.25 196.17 215.07 196.17 223.91 201.06 221.09 205.95 218.26 205.95 209.42 201.06 212.24"
       id="polyline55" />
    <polyline
       class="cls-6"
       points="201.06 212.24 201.06 212.25 201.06 221.09"
       id="polyline56" />
    <line
       class="cls-6"
       x1="173.02"
       y1="228.37"
       x2="173.02"
       y2="237.21001"
       id="line56" />
    <polygon
       class="cls-6"
       points="177.91,225.55 173.02,228.37 168.13,231.19 168.13,240.04 173.02,237.21 177.91,234.39 "
       id="polygon56" />
    <line
       class="cls-6"
       x1="106.28"
       y1="191.35001"
       x2="106.28"
       y2="200.00999"
       id="line57" />
    <polyline
       class="cls-6"
       points="129.07 242.52 129.07 242.46 129.07 224.35 138 229.51 138 247.62 138 247.68"
       id="polyline57" />
    <polyline
       class="cls-6"
       points="106.15 211.73 106.15 220.23 106.15 228.72"
       id="polyline58" />
    <polyline
       class="cls-6"
       points="99.71 216.51 106.15 220.23 112.6 223.95"
       id="polyline59" />
    <line
       class="cls-6"
       x1="134.64"
       y1="207.62"
       x2="134.64"
       y2="216.44"
       id="line59" />
    <polygon
       class="cls-6"
       points="101.4,188.53 101.4,197.19 106.28,200.01 111.16,202.82 111.16,194.16 106.28,191.35 106.28,191.34 "
       id="polygon59" />
    <polygon
       class="cls-6"
       points="99.71,225 106.15,228.72 112.6,232.44 112.6,223.95 112.6,215.46 106.15,211.73 99.71,208.01 99.71,216.51 "
       id="polygon60" />
    <polygon
       class="cls-6"
       points="139.51,210.44 134.64,207.62 129.76,204.8 129.76,213.62 134.64,216.44 139.51,219.25 "
       id="polygon61" />
    <line
       class="cls-6"
       x1="114.77"
       y1="252.05"
       x2="114.77"
       y2="249.89999"
       id="line61" />
    <polyline
       class="cls-6"
       points="216.6 226 216.6 176.74 216.6 176.73"
       id="polyline61" />
    <line
       class="cls-6"
       x1="131.35001"
       y1="261.62"
       x2="131.35001"
       y2="259.47"
       id="line62" />
    <line
       class="cls-6"
       x1="152.98"
       y1="262.73001"
       x2="152.98"
       y2="213.46001"
       id="line63" />
    <line
       class="cls-6"
       x1="141.21001"
       y1="251.62"
       x2="141.21001"
       y2="249.47"
       id="line64" />
    <line
       class="cls-6"
       x1="114.77"
       y1="252.05"
       x2="131.35001"
       y2="261.62"
       id="line65" />
    <line
       class="cls-6"
       x1="136.25999"
       y1="159.66"
       x2="174.24001"
       y2="137.74001"
       id="line66" />
    <line
       class="cls-6"
       x1="152.98"
       y1="213.46001"
       x2="136.25999"
       y2="159.66"
       id="line67" />
    <polyline
       class="cls-6"
       points="119.43 245.06 119.42 245.06 117.01 246.45"
       id="polyline67" />
    <line
       class="cls-6"
       x1="135.92999"
       y1="254.59"
       x2="135.92999"
       y2="252.42999"
       id="line68" />
    <line
       class="cls-6"
       x1="124.63"
       y1="239.89999"
       x2="119.35"
       y2="242.86"
       id="line69" />
    <line
       class="cls-6"
       x1="117.01"
       y1="246.45"
       x2="133.59"
       y2="256.01999"
       id="line70" />
    <line
       class="cls-6"
       x1="56.490002"
       y1="207.02"
       x2="56.490002"
       y2="184.12"
       id="line71" />
    <line
       class="cls-6"
       x1="66.830002"
       y1="197.28"
       x2="66.830002"
       y2="205.94"
       id="line72" />
    <polyline
       class="cls-6"
       points="78.39 219.73 78.39 219.66 78.39 202.45 86.14 206.93 86.14 224.14 86.14 224.2"
       id="polyline72" />
    <line
       class="cls-6"
       x1="92.389999"
       y1="163.39"
       x2="104.81"
       y2="166.07001"
       id="line73" />
    <line
       class="cls-6"
       x1="56.490002"
       y1="184.12"
       x2="92.330002"
       y2="191.85001"
       id="line74" />
    <line
       class="cls-6"
       x1="56.490002"
       y1="184.12"
       x2="92.389999"
       y2="163.39"
       id="line75" />
    <polyline
       class="cls-6"
       points="56.49 207.02 78.39 219.66 86.14 224.14 92.33 227.71"
       id="polyline75" />
    <polygon
       class="cls-6"
       points="61.95,203.12 66.83,205.94 71.7,208.76 71.7,200.09 66.83,197.28 61.95,194.46 "
       id="polygon75" />
  </g>
  <g
     id="outline"
     transform="translate(0,-62.294921)">
    <polygon
       class="cls-7"
       points="92.33,227.71 119.35,243.31 119.35,245.02 119.42,245.06 117.01,246.45 117.01,248.61 114.77,249.9 114.77,252.06 131.35,261.63 141.21,255.93 152.98,262.73 216.6,226 216.6,176.74 221.08,174.15 174.24,137.74 155.95,136.55 87.85,175.86 92.33,178.44 "
       id="polygon76" />
    <polyline
       class="cls-7"
       points="104.81 166.07 92.39 163.4 56.49 184.12 56.49 207.02 92.39 227.75"
       id="polyline76" />
  </g>
  <metadata
     id="metadata76">
    <rdf:RDF>
      <cc:Work
         rdf:about="">
        <dc:title>gentle density diagram</dc:title>
      </cc:Work>
    </rdf:RDF>
  </metadata>
</svg>
