<svg xmlns="http://www.w3.org/2000/svg" viewBox="0 0 350 350"><defs><style>.cls-1{opacity:0.22;}.cls-2{fill:#8eb6dc;}.cls-3,.cls-5,.cls-7{fill:none;stroke-linejoin:round;}.cls-3{stroke:#d6d6d6;stroke-width:0.75px;}.cls-4{fill:gold;}.cls-5,.cls-7{stroke:#1470ad;stroke-linecap:round;}.cls-5{stroke-width:0.3px;}.cls-6{fill:#fff;}</style></defs><title>gentle density diagram</title><g id="lot_fill" data-name="lot fill" class="cls-1"><polygon class="cls-2" points="36.77 216.53 219.99 110.72 328.69 173.5 145.48 279.32 36.77 216.53"/></g><g id="lot"><line class="cls-3" x1="187.25" y1="129.63" x2="173.31" y2="137.67"/><polyline class="cls-3" points="92.42 184.39 36.77 216.53 145.48 279.32 328.69 173.5 249.94 128.02"/></g><g id="_6_detach_garage::garage" data-name="6 detach garage::garage"><polygon class="cls-4" points="243.28 120.58 243.28 127.95 239.2 130.31 239.2 130.3 239.2 122.93 243.28 120.58"/><polygon class="cls-4" points="239.2 130.3 239.2 130.31 235.13 132.66 235.13 125.28 239.2 122.93 239.2 130.3"/><path class="cls-4" d="M190.18,130.74l4,2.31,4,2.31v-7.1l-4-2.31-4-2.31ZM187.25,136V116.3l26.8,15.48v19.73L209,148.57V133.85l-6.6-3.82v14.73Z"/><polygon class="cls-4" points="200.65 116.33 214.05 131.78 187.25 116.3 200.65 116.33"/><polygon class="cls-4" points="236.54 95.61 200.65 116.33 187.25 116.3 223.14 95.57 236.54 95.61"/><polygon class="cls-4" points="194.18 125.95 194.18 133.05 190.18 130.74 190.18 123.64 194.18 125.95"/><polygon class="cls-4" points="208.97 133.85 208.97 148.57 202.37 144.76 202.37 130.03 208.97 133.85"/><polygon class="cls-4" points="198.18 128.26 198.18 135.36 194.18 133.05 194.18 125.95 198.18 128.26"/><path class="cls-4" d="M249.94,111.05v19.73l-35.89,20.73V131.78ZM243.28,128v-7.37l-4.08,2.35-4.07,2.35v7.38l4.07-2.35Z"/><polygon class="cls-4" points="236.54 95.61 249.94 111.05 214.05 131.78 200.65 116.33 236.54 95.61"/><line class="cls-5" x1="194.18" y1="125.95" x2="194.18" y2="133.05"/><polygon class="cls-5" points="194.18 133.05 198.18 135.36 198.18 128.26 194.18 125.95 190.18 123.64 190.18 130.74 194.18 133.05"/><line class="cls-5" x1="239.2" y1="122.93" x2="239.2" y2="130.3"/><line class="cls-5" x1="249.94" y1="130.78" x2="249.94" y2="111.05"/><line class="cls-5" x1="187.25" y1="136.02" x2="187.25" y2="116.3"/><polyline class="cls-5" points="187.25 136.02 202.37 144.76 208.97 148.57 214.05 151.51"/><line class="cls-5" x1="214.05" y1="151.51" x2="249.94" y2="130.78"/><line class="cls-5" x1="214.05" y1="151.51" x2="214.05" y2="131.78"/><line class="cls-5" x1="187.25" y1="116.3" x2="200.65" y2="116.33"/><line class="cls-5" x1="223.14" y1="95.57" x2="236.54" y2="95.61"/><line class="cls-5" x1="187.25" y1="116.3" x2="223.14" y2="95.57"/><line class="cls-5" x1="236.54" y1="95.61" x2="249.94" y2="111.05"/><line class="cls-5" x1="200.65" y1="116.33" x2="214.05" y2="131.78"/><polyline class="cls-5" points="202.37 144.76 202.37 130.03 208.97 133.85 208.97 148.57"/><line class="cls-5" x1="200.65" y1="116.33" x2="236.54" y2="95.61"/><line class="cls-5" x1="214.05" y1="131.78" x2="249.94" y2="111.05"/><line class="cls-5" x1="214.05" y1="131.78" x2="187.25" y2="116.3"/><polygon class="cls-5" points="239.2 130.31 243.28 127.95 243.28 120.58 239.2 122.93 235.13 125.28 235.13 132.66 239.2 130.31"/></g><g id="_6_detach_garage::house" data-name="6 detach garage::house"><polygon class="cls-6" points="112.69 223.95 112.69 232.45 106.24 228.72 106.24 220.23 112.69 223.95"/><polygon class="cls-6" points="133.67 256.02 133.67 258.18 117.1 248.61 117.1 246.45 133.67 256.02"/><polygon class="cls-6" points="117.1 248.61 133.67 258.18 131.43 259.47 114.86 249.9 117.1 248.61"/><polygon class="cls-6" points="114.86 249.9 131.43 259.47 131.43 261.63 114.86 252.06 114.86 249.9"/><polygon class="cls-6" points="111.24 194.16 111.24 202.83 106.36 200.01 106.36 191.34 111.24 194.16"/><polygon class="cls-6" points="106.24 211.74 106.24 220.23 99.8 216.51 99.8 208.02 106.24 211.74"/><polygon class="cls-6" points="112.69 215.46 112.69 223.95 106.24 220.23 106.24 211.74 112.69 215.46"/><polygon class="cls-6" points="138.08 229.51 138.08 247.62 129.15 242.46 129.15 224.35 138.08 229.51"/><polygon class="cls-6" points="119.51 245.06 136.01 254.59 133.67 256.02 117.1 246.45 119.51 245.06"/><polygon class="cls-6" points="134.71 207.62 134.71 216.44 129.84 213.62 129.84 204.81 134.71 207.62"/><polygon class="cls-6" points="106.24 220.23 106.24 228.72 99.8 225 99.8 216.51 106.24 220.23"/><polygon class="cls-6" points="141.28 253.78 141.28 255.93 131.43 261.63 131.43 259.47 133.67 258.18 133.67 256.02 136.01 254.59 136.01 252.44 141.28 249.47 141.28 251.63 141.28 253.78"/><polygon class="cls-6" points="106.36 191.34 106.36 200.01 101.49 197.19 101.49 188.53 106.36 191.34"/><polygon class="cls-6" points="136.01 252.44 136.01 254.59 119.51 245.06 119.44 245.02 119.44 243.32 119.44 242.87 136.01 252.44"/><polygon class="cls-6" points="177.97 206.02 177.97 214.87 173.09 217.69 173.09 208.85 177.97 206.02"/><polygon class="cls-6" points="206 209.42 206 218.27 201.11 221.09 201.11 212.25 206 209.42"/><polygon class="cls-6" points="173.09 208.85 173.09 217.69 168.2 220.51 168.2 211.67 173.09 208.85"/><polygon class="cls-6" points="206 189.9 206 198.74 201.11 201.56 201.11 192.72 206 189.9"/><polygon class="cls-6" points="173.09 237.21 173.09 237.22 168.2 240.04 168.2 231.2 173.09 228.37 173.09 237.21"/><polygon class="cls-6" points="201.11 201.56 196.22 204.39 196.22 195.54 201.11 192.72 201.11 201.56"/><polygon class="cls-6" points="177.97 225.55 177.97 234.39 173.09 237.21 173.09 228.37 177.97 225.55"/><polygon class="cls-6" points="139.59 210.44 139.59 219.26 134.71 216.44 134.71 207.62 139.59 210.44"/><polygon class="cls-6" points="201.11 212.25 201.11 221.09 196.22 223.91 196.22 215.07 201.11 212.25"/><polygon class="cls-6" points="138.08 247.62 141.28 249.47 136.01 252.44 119.44 242.87 124.71 239.9 129.15 242.46 138.08 247.62"/><path class="cls-6" d="M119.44,242.87v.45l-27-15.6V178.45h0l60.63,35v49.27l-11.77-6.8v-6.46l-3.2-1.85V229.51l-8.93-5.16v18.11l-4.44-2.56Zm20.15-23.61v-8.82l-4.88-2.82-4.87-2.81v8.81l4.87,2.82Zm-26.9,13.19v-17l-6.45-3.72L99.8,208v17l6.44,3.72Zm-1.45-29.62v-8.67l-4.88-2.82-4.87-2.81v8.66l4.87,2.82Z"/><path class="cls-6" d="M178,206l-4.88,2.83-4.89,2.82v8.84l4.89-2.82,4.88-2.82Zm38.68-29.28V226l-63.6,36.72V213.46ZM206,218.27v-8.85l-4.89,2.83-4.89,2.82v8.84l4.89-2.82Zm0-19.53V189.9l-4.89,2.82-4.89,2.82v8.85l4.89-2.83Zm-28,35.65v-8.84l-4.88,2.82-4.89,2.83V240l4.89-2.82h0Z"/><polygon class="cls-6" points="221.13 174.15 216.65 176.74 153.05 213.46 136.34 159.67 174.3 137.74 221.13 174.15"/><polygon class="cls-6" points="136.34 159.67 153.05 213.46 92.42 178.44 87.95 175.86 136.34 159.67"/><polygon class="cls-6" points="174.3 137.74 136.34 159.67 87.95 175.86 156.02 136.55 174.3 137.74"/><polyline class="cls-5" points="87.95 175.86 92.42 178.44 153.05 213.46"/><line class="cls-5" x1="131.43" y1="261.63" x2="141.28" y2="255.93"/><line class="cls-5" x1="114.86" y1="252.06" x2="114.86" y2="249.9"/><line class="cls-5" x1="131.43" y1="261.63" x2="131.43" y2="259.47"/><line class="cls-5" x1="114.86" y1="252.06" x2="131.43" y2="261.63"/><line class="cls-5" x1="136.34" y1="159.67" x2="174.3" y2="137.74"/><line class="cls-5" x1="153.05" y1="213.46" x2="136.34" y2="159.67"/><line class="cls-5" x1="153.05" y1="262.73" x2="153.05" y2="213.46"/><line class="cls-5" x1="131.43" y1="259.47" x2="133.67" y2="258.18"/><line class="cls-5" x1="153.05" y1="262.73" x2="216.65" y2="226.01"/><line class="cls-5" x1="92.42" y1="227.72" x2="119.44" y2="243.32"/><line class="cls-5" x1="156.02" y1="136.55" x2="87.95" y2="175.86"/><line class="cls-5" x1="174.3" y1="137.74" x2="221.13" y2="174.15"/><line class="cls-5" x1="114.86" y1="249.9" x2="131.43" y2="259.47"/><line class="cls-5" x1="117.1" y1="248.61" x2="133.67" y2="258.18"/><line class="cls-5" x1="133.67" y1="258.18" x2="133.67" y2="256.02"/><line class="cls-5" x1="117.1" y1="248.61" x2="117.1" y2="246.45"/><line class="cls-5" x1="141.28" y1="253.78" x2="141.28" y2="251.63"/><line class="cls-5" x1="117.1" y1="248.61" x2="114.86" y2="249.9"/><line class="cls-5" x1="117.1" y1="246.45" x2="133.67" y2="256.02"/><line class="cls-5" x1="141.28" y1="251.63" x2="141.28" y2="249.47"/><polyline class="cls-5" points="141.28 249.47 138.08 247.62 129.15 242.46 124.71 239.9"/><line class="cls-5" x1="124.71" y1="239.9" x2="119.44" y2="242.87"/><line class="cls-5" x1="119.44" y1="242.87" x2="136.01" y2="252.44"/><line class="cls-5" x1="136.01" y1="252.44" x2="141.28" y2="249.47"/><line class="cls-5" x1="141.28" y1="255.93" x2="153.05" y2="262.73"/><line class="cls-5" x1="133.67" y1="256.02" x2="136.01" y2="254.59"/><polygon class="cls-5" points="201.11 201.56 206 198.74 206 189.9 201.11 192.72 196.22 195.54 196.22 204.39 201.11 201.56"/><line class="cls-5" x1="201.11" y1="192.72" x2="201.11" y2="201.56"/><polyline class="cls-5" points="221.13 174.15 216.65 176.74 153.05 213.46"/><line class="cls-5" x1="173.09" y1="208.85" x2="173.09" y2="217.69"/><polygon class="cls-5" points="173.09 208.85 168.2 211.67 168.2 220.51 173.09 217.69 177.97 214.87 177.97 206.02 173.09 208.85"/><polygon class="cls-5" points="201.11 221.09 206 218.27 206 209.42 201.11 212.25 196.22 215.07 196.22 223.91 201.11 221.09"/><line class="cls-5" x1="201.11" y1="212.25" x2="201.11" y2="221.09"/><line class="cls-5" x1="216.65" y1="226.01" x2="216.65" y2="176.74"/><line class="cls-5" x1="92.42" y1="227.72" x2="92.42" y2="178.45"/><line class="cls-5" x1="119.51" y1="245.06" x2="117.1" y2="246.45"/><polyline class="cls-5" points="119.44 245.02 119.51 245.06 136.01 254.59"/><line class="cls-5" x1="136.01" y1="254.59" x2="136.01" y2="252.44"/><polyline class="cls-5" points="119.44 245.02 119.44 243.32 119.44 242.87"/><line class="cls-5" x1="174.3" y1="137.74" x2="156.02" y2="136.55"/><line class="cls-5" x1="141.28" y1="255.93" x2="141.28" y2="253.78"/><line class="cls-5" x1="173.09" y1="228.37" x2="173.09" y2="237.21"/><polygon class="cls-5" points="173.09 228.37 168.2 231.2 168.2 240.04 173.09 237.22 173.09 237.21 177.97 234.39 177.97 225.55 173.09 228.37"/><line class="cls-5" x1="106.36" y1="191.34" x2="106.36" y2="200.01"/><polyline class="cls-5" points="129.15 242.52 129.15 242.46 129.15 224.35 138.08 229.51 138.08 247.62 138.08 247.68"/><polyline class="cls-5" points="106.24 211.74 106.24 220.23 106.24 228.72"/><polyline class="cls-5" points="99.8 216.51 106.24 220.23 112.69 223.95"/><line class="cls-5" x1="134.71" y1="207.62" x2="134.71" y2="216.44"/><polygon class="cls-5" points="106.36 200.01 111.24 202.83 111.24 194.16 106.36 191.34 101.49 188.53 101.49 197.19 106.36 200.01"/><polygon class="cls-5" points="112.69 223.95 112.69 215.46 106.24 211.74 99.8 208.02 99.8 216.51 99.8 225 106.24 228.72 112.69 232.45 112.69 223.95"/><polygon class="cls-5" points="134.71 207.62 129.84 204.81 129.84 213.62 134.71 216.44 139.59 219.26 139.59 210.44 134.71 207.62"/><line class="cls-5" x1="87.95" y1="175.86" x2="136.34" y2="159.67"/></g><g id="outline"><polygon class="cls-7" points="221.13 174.15 174.31 137.74 156.02 136.54 87.95 175.86 92.42 178.44 92.42 227.71 119.44 243.31 119.44 245.02 119.51 245.06 117.1 246.45 117.1 248.61 114.86 249.9 114.86 252.05 131.43 261.62 141.28 255.93 153.06 262.73 216.65 226 216.65 176.73 221.13 174.15"/><polygon class="cls-7" points="249.94 111.05 236.54 95.6 223.14 95.57 187.25 116.3 187.25 136.02 214.05 151.5 249.94 130.77 249.94 111.05 249.94 111.05"/></g></svg>