<svg xmlns="http://www.w3.org/2000/svg" viewBox="0 0 350 350"><defs><style>.cls-1{opacity:0.22;}.cls-2{fill:#8eb6dc;}.cls-3,.cls-5,.cls-7{fill:none;stroke-linejoin:round;}.cls-3{stroke:#d6d6d6;stroke-width:0.75px;}.cls-4{fill:#fff;}.cls-5,.cls-7{stroke:#1470ad;stroke-linecap:round;}.cls-5{stroke-width:0.3px;}.cls-6{fill:gold;}</style></defs><title>gentle density diagram</title><g id="lot_fill" data-name="lot fill" class="cls-1"><polygon class="cls-2" points="36.66 216.53 219.94 110.72 328.69 173.5 145.4 279.32 36.66 216.53"/></g><g id="lot"><polyline class="cls-3" points="92.33 184.39 36.66 216.53 145.4 279.32 328.69 173.5 280.79 145.84"/><line class="cls-3" x1="189.2" y1="128.46" x2="173.25" y2="137.67"/></g><g id="_7_garden_suite::house" data-name="7 garden suite::house"><polygon class="cls-4" points="114.77 249.9 117.01 248.61 133.59 258.18 131.35 259.47 114.77 249.9"/><polygon class="cls-4" points="133.59 258.18 117.01 248.61 117.01 246.46 133.59 256.03 133.59 258.18"/><polygon class="cls-4" points="111.16 194.16 111.16 202.83 106.28 200.01 106.28 191.35 111.16 194.16"/><polygon class="cls-4" points="106.15 220.23 106.15 228.72 99.71 225 99.71 216.51 106.15 220.23"/><polygon class="cls-4" points="131.35 261.63 114.77 252.06 114.77 249.9 131.35 259.47 131.35 261.63"/><polygon class="cls-4" points="112.6 223.95 112.6 232.45 106.15 228.72 106.15 220.23 112.6 223.95"/><polygon class="cls-4" points="106.15 211.74 106.15 220.23 99.71 216.51 99.71 208.02 106.15 211.74"/><polygon class="cls-4" points="106.28 191.35 106.28 200.01 101.4 197.19 101.4 188.53 106.28 191.34 106.28 191.35"/><polygon class="cls-4" points="112.6 215.46 112.6 223.95 106.15 220.23 106.15 211.74 112.6 215.46"/><polygon class="cls-4" points="134.64 207.63 134.64 216.44 129.76 213.62 129.76 204.81 134.64 207.63"/><polygon class="cls-4" points="135.93 252.44 141.21 249.47 141.21 251.63 141.21 253.78 141.21 255.93 131.35 261.63 131.35 259.47 133.59 258.18 133.59 256.03 135.93 254.59 135.93 252.44"/><polygon class="cls-4" points="119.35 245.02 119.35 243.32 119.35 242.87 135.93 252.44 135.93 254.59 119.43 245.06 119.42 245.06 119.35 245.02"/><polygon class="cls-4" points="138 247.62 141.21 249.47 135.93 252.44 119.35 242.87 124.63 239.9 129.07 242.46 138 247.62"/><polygon class="cls-4" points="138 229.51 138 247.62 129.07 242.46 129.07 224.35 138 229.51"/><polygon class="cls-4" points="139.51 210.44 139.51 219.26 134.64 216.44 134.64 207.63 139.51 210.44"/><polygon class="cls-4" points="133.59 256.03 117.01 246.46 119.42 245.06 119.43 245.06 135.93 254.59 133.59 256.03"/><polygon class="cls-4" points="201.06 212.25 201.06 221.09 196.17 223.91 196.17 215.07 201.06 212.25"/><polygon class="cls-4" points="177.91 206.02 177.91 214.87 173.02 217.69 173.02 208.85 177.91 206.02"/><polygon class="cls-4" points="173.02 208.85 173.02 217.69 168.13 220.51 168.13 211.67 173.02 208.85"/><polygon class="cls-4" points="177.91 225.55 177.91 234.39 173.02 237.22 173.02 228.38 173.02 228.37 177.91 225.55"/><polygon class="cls-4" points="173.02 228.38 173.02 237.22 168.13 240.04 168.13 231.2 173.02 228.38"/><polygon class="cls-4" points="205.95 209.42 205.95 218.27 201.06 221.09 201.06 212.25 205.95 209.42"/><polygon class="cls-4" points="205.95 189.9 205.95 198.74 201.06 201.56 201.06 192.72 205.95 189.9"/><polygon class="cls-4" points="201.06 201.56 196.17 204.39 196.17 195.54 201.06 192.72 201.06 201.56"/><path class="cls-4" d="M134.64,207.63l-4.88-2.82v8.81l4.88,2.82,4.87,2.82v-8.82Zm-15.29,35.24v.45l-27-15.6V178.45l60.65,35v49.27l-11.77-6.8v-6.46L138,247.62V229.51l-8.93-5.16v18.11l-4.44-2.56Zm-6.75-10.42v-17l-6.45-3.72L99.71,208v17l6.44,3.72Zm-1.44-29.62v-8.67l-4.88-2.81h0l-4.88-2.81v8.66l4.88,2.82Z"/><path class="cls-4" d="M216.6,176.74V226L153,262.73V213.46ZM206,218.27v-8.85l-4.89,2.83-4.89,2.82v8.84l4.89-2.82Zm0-19.53V189.9l-4.89,2.82-4.89,2.82v8.85l4.89-2.83Zm-28,35.65v-8.84L173,228.37h0l-4.89,2.82V240l4.89-2.82Zm0-19.52V206L173,208.85l-4.89,2.82v8.84l4.89-2.82Z"/><polygon class="cls-4" points="136.26 159.67 152.98 213.46 92.33 178.45 87.85 175.86 136.26 159.67"/><polygon class="cls-4" points="221.08 174.15 216.6 176.74 152.98 213.46 136.26 159.67 174.24 137.74 221.08 174.15"/><polygon class="cls-4" points="174.24 137.74 136.26 159.67 87.85 175.86 155.95 136.55 174.24 137.74"/><line class="cls-5" x1="114.77" y1="249.9" x2="131.35" y2="259.47"/><polyline class="cls-5" points="99.71 216.51 106.15 220.23 112.6 223.95"/><line class="cls-5" x1="117.01" y1="246.46" x2="133.59" y2="256.03"/><line class="cls-5" x1="92.33" y1="227.72" x2="92.33" y2="178.45"/><polyline class="cls-5" points="134.64 207.62 134.64 207.63 134.64 216.44"/><polyline class="cls-5" points="106.28 191.34 101.4 188.53 101.4 197.19 106.28 200.01 111.16 202.83 111.16 194.16 106.28 191.35"/><polygon class="cls-5" points="112.6 223.95 112.6 215.46 106.15 211.74 99.71 208.02 99.71 216.51 99.71 225 106.15 228.72 112.6 232.45 112.6 223.95"/><polygon class="cls-5" points="134.64 207.63 129.76 204.81 129.76 213.62 134.64 216.44 139.51 219.26 139.51 210.44 134.64 207.63"/><line class="cls-5" x1="135.93" y1="252.44" x2="141.21" y2="249.47"/><polyline class="cls-5" points="119.35 245.02 119.35 243.32 119.35 242.87"/><line class="cls-5" x1="119.35" y1="242.87" x2="135.93" y2="252.44"/><line class="cls-5" x1="119.43" y1="245.06" x2="135.93" y2="254.59"/><line class="cls-5" x1="119.35" y1="245.02" x2="119.42" y2="245.06"/><polyline class="cls-5" points="87.85 175.86 92.33 178.45 152.98 213.46"/><line class="cls-5" x1="174.24" y1="137.74" x2="155.95" y2="136.55"/><polyline class="cls-5" points="221.08 174.15 216.6 176.74 152.98 213.46"/><line class="cls-5" x1="136.26" y1="159.67" x2="174.24" y2="137.74"/><line class="cls-5" x1="152.98" y1="213.46" x2="136.26" y2="159.67"/><polyline class="cls-5" points="119.43 245.06 119.42 245.06 117.01 246.46"/><line class="cls-5" x1="141.21" y1="255.93" x2="152.98" y2="262.73"/><line class="cls-5" x1="117.01" y1="248.61" x2="114.77" y2="249.9"/><line class="cls-5" x1="133.59" y1="256.03" x2="135.93" y2="254.59"/><polyline class="cls-5" points="129.07 242.52 129.07 242.46 129.07 224.35 138 229.51 138 247.62 138 247.68"/><polyline class="cls-5" points="106.28 191.34 106.28 191.35 106.28 200.01"/><line class="cls-5" x1="141.21" y1="253.78" x2="141.21" y2="251.63"/><line class="cls-5" x1="117.01" y1="248.61" x2="117.01" y2="246.46"/><line class="cls-5" x1="133.59" y1="258.18" x2="133.59" y2="256.03"/><line class="cls-5" x1="117.01" y1="248.61" x2="133.59" y2="258.18"/><line class="cls-5" x1="152.98" y1="262.73" x2="152.98" y2="213.46"/><line class="cls-5" x1="216.6" y1="226.01" x2="216.6" y2="176.74"/><line class="cls-5" x1="152.98" y1="262.73" x2="216.6" y2="226.01"/><line class="cls-5" x1="92.33" y1="227.72" x2="119.35" y2="243.32"/><polyline class="cls-5" points="173.02 228.38 168.13 231.2 168.13 240.04 173.02 237.22 177.91 234.39 177.91 225.55 173.02 228.37"/><polyline class="cls-5" points="173.02 228.37 173.02 228.38 173.02 237.22"/><line class="cls-5" x1="201.06" y1="212.25" x2="201.06" y2="221.09"/><polygon class="cls-5" points="201.06 221.09 205.95 218.27 205.95 209.42 201.06 212.25 196.17 215.07 196.17 223.91 201.06 221.09"/><polyline class="cls-5" points="106.15 211.74 106.15 220.23 106.15 228.72"/><line class="cls-5" x1="124.63" y1="239.9" x2="119.35" y2="242.87"/><polyline class="cls-5" points="141.21 249.47 138 247.62 129.07 242.46 124.63 239.9"/><line class="cls-5" x1="141.21" y1="251.63" x2="141.21" y2="249.47"/><line class="cls-5" x1="135.93" y1="254.59" x2="135.93" y2="252.44"/><line class="cls-5" x1="87.85" y1="175.86" x2="136.26" y2="159.67"/><line class="cls-5" x1="155.95" y1="136.55" x2="87.85" y2="175.86"/><line class="cls-5" x1="174.24" y1="137.74" x2="221.08" y2="174.15"/><polygon class="cls-5" points="173.02 208.85 168.13 211.67 168.13 220.51 173.02 217.69 177.91 214.87 177.91 206.02 173.02 208.85"/><line class="cls-5" x1="131.35" y1="259.47" x2="133.59" y2="258.18"/><line class="cls-5" x1="141.21" y1="255.93" x2="141.21" y2="253.78"/><line class="cls-5" x1="131.35" y1="261.63" x2="141.21" y2="255.93"/><line class="cls-5" x1="114.77" y1="252.06" x2="114.77" y2="249.9"/><line class="cls-5" x1="131.35" y1="261.63" x2="131.35" y2="259.47"/><line class="cls-5" x1="114.77" y1="252.06" x2="131.35" y2="261.63"/><line class="cls-5" x1="173.02" y1="208.85" x2="173.02" y2="217.69"/><line class="cls-5" x1="201.06" y1="192.72" x2="201.06" y2="201.56"/><polygon class="cls-5" points="201.06 201.56 205.95 198.74 205.95 189.9 201.06 192.72 196.17 195.54 196.17 204.39 201.06 201.56"/></g><g id="_7_garden_suite::garage" data-name="7 garden suite::garage"><polygon class="cls-6" points="214.54 131.49 214.54 143.91 206.2 139.09 206.2 126.68 214.54 131.49"/><polygon class="cls-6" points="206.2 126.68 206.2 139.09 197.86 134.27 197.86 121.86 206.2 126.67 206.2 126.68"/><polygon class="cls-6" points="239.18 145.82 239.18 163.93 230.24 158.77 230.24 140.66 239.18 145.82"/><polygon class="cls-6" points="271.32 139.48 271.32 148.33 266.43 151.15 266.43 142.31 266.43 142.3 271.32 139.48"/><polygon class="cls-6" points="266.43 142.31 266.43 151.15 261.54 153.97 261.54 145.13 266.43 142.31"/><path class="cls-6" d="M250,144.72v25.47l-10.84-6.26V145.82l-8.94-5.16v18.11l-41-23.69V109.6Zm-35.48-.81V131.49l-8.34-4.81h0l-8.34-4.81v12.41l8.34,4.82Z"/><path class="cls-6" d="M280.79,127v25.48L250,170.19V144.72Zm-9.47,21.38v-8.85l-4.89,2.82h0l-4.89,2.82V154l4.89-2.82Z"/><polygon class="cls-6" points="280.79 126.95 250.02 144.72 250.14 117.11 259.65 111.61 280.79 126.95"/><polygon class="cls-6" points="250.14 117.11 250.02 144.72 189.2 109.6 209.9 93.87 250.14 117.11"/><polygon class="cls-6" points="259.65 111.61 250.14 117.11 209.9 93.87 219.41 88.38 259.65 111.61"/><line class="cls-5" x1="266.43" y1="142.31" x2="266.43" y2="151.15"/><polygon class="cls-5" points="266.43 151.15 271.32 148.33 271.32 139.48 266.43 142.3 266.43 142.31 261.54 145.13 261.54 153.97 266.43 151.15"/><line class="cls-5" x1="206.2" y1="126.68" x2="206.2" y2="139.09"/><polygon class="cls-5" points="206.2 139.09 214.54 143.91 214.54 131.49 206.2 126.68 206.2 126.67 197.86 121.86 197.86 134.27 206.2 139.09"/><line class="cls-5" x1="280.79" y1="152.43" x2="280.79" y2="126.95"/><line class="cls-5" x1="259.65" y1="111.61" x2="219.41" y2="88.38"/><line class="cls-5" x1="209.9" y1="93.87" x2="219.41" y2="88.38"/><line class="cls-5" x1="259.65" y1="111.61" x2="280.79" y2="126.95"/><line class="cls-5" x1="250.02" y1="144.72" x2="250.14" y2="117.11"/><line class="cls-5" x1="250.02" y1="170.19" x2="250.02" y2="144.72"/><line class="cls-5" x1="250.02" y1="170.19" x2="280.79" y2="152.43"/><polyline class="cls-5" points="189.2 135.08 230.24 158.77 239.18 163.93 250.02 170.19"/><line class="cls-5" x1="250.14" y1="117.11" x2="209.9" y2="93.87"/><line class="cls-5" x1="250.02" y1="144.72" x2="189.2" y2="109.6"/><line class="cls-5" x1="250.14" y1="117.11" x2="259.65" y2="111.61"/><line class="cls-5" x1="280.79" y1="126.95" x2="250.02" y2="144.72"/><line class="cls-5" x1="189.2" y1="135.08" x2="189.2" y2="109.6"/><line class="cls-5" x1="189.2" y1="109.6" x2="209.9" y2="93.87"/><polyline class="cls-5" points="230.24 158.83 230.24 158.77 230.24 140.66 239.18 145.82 239.18 163.93 239.18 163.99"/></g><g id="outline"><polygon class="cls-7" points="259.65 111.61 219.41 88.38 209.9 93.87 189.2 109.6 189.2 109.6 189.2 135.08 250.02 170.19 280.79 152.43 280.79 126.95 259.65 111.61"/><polygon class="cls-7" points="221.08 174.15 174.24 137.74 155.95 136.55 87.85 175.86 92.33 178.44 92.33 227.71 119.35 243.31 119.35 245.02 119.42 245.06 117.01 246.45 117.01 248.61 114.77 249.9 114.77 252.06 131.35 261.62 141.21 255.93 152.98 262.73 216.6 226 216.6 176.74 221.08 174.15"/></g></svg>