<svg xmlns="http://www.w3.org/2000/svg" viewBox="0 0 350 350"><defs><style>.cls-1{opacity:0.22;}.cls-2{fill:#8eb6dc;}.cls-3,.cls-6,.cls-7{fill:none;stroke-linejoin:round;}.cls-3{stroke:#d6d6d6;stroke-width:0.75px;}.cls-4{fill:#5cffd9;}.cls-5{fill:#fff;}.cls-6,.cls-7{stroke:#1470ad;stroke-linecap:round;}.cls-6{stroke-width:0.3px;}</style></defs><title>gentle density diagram</title><g id="lot_fill" data-name="lot fill" class="cls-1"><polygon class="cls-2" points="36.66 216.53 219.94 110.71 328.69 173.5 145.4 279.32 36.66 216.53"/></g><g id="lot"><polyline class="cls-3" points="67.96 198.46 36.66 216.53 145.4 279.32 328.69 173.5 249.91 128.02"/><line class="cls-3" x1="187.19" y1="129.63" x2="173.25" y2="137.67"/></g><g id="_5_addition::house" data-name="5 addition::house"><polygon class="cls-4" points="83.97 204.71 83.97 222.88 75.04 217.72 75.04 199.55 83.97 204.71"/><polygon class="cls-4" points="80.61 182.83 80.61 191.64 75.73 188.83 75.73 180.01 80.61 182.83"/><polygon class="cls-4" points="85.49 185.64 85.49 194.46 80.61 191.64 80.61 182.83 85.49 185.64"/><path class="cls-4" d="M92.34,181.12v46.59L84,222.88V204.71L75,199.55v18.17L68,213.64V167.05Zm-6.85,13.34v-8.82l-4.88-2.81L75.73,180v8.82l4.88,2.81Z"/><polygon class="cls-4" points="92.34 181.12 67.97 167.05 131.58 130.33 149.15 140.47 87.86 175.86 92.34 178.44 92.34 178.45 92.34 181.12"/><polygon class="cls-4" points="246.32 179.08 246.32 208.85 216.61 226 216.61 196.24 246.32 179.08"/><polygon class="cls-4" points="221.09 174.15 183.78 145.15 185.66 144.06 246.32 179.08 216.61 196.24 216.61 176.74 216.61 176.73 221.09 174.15"/><polygon class="cls-5" points="139.52 210.44 139.52 219.25 134.64 216.44 134.64 207.62 139.52 210.44"/><polygon class="cls-5" points="106.28 191.34 106.28 200.01 101.4 197.19 101.4 188.52 106.28 191.34"/><polygon class="cls-5" points="106.16 220.23 106.16 228.72 99.71 225 99.71 216.51 106.16 220.23"/><polygon class="cls-5" points="106.16 211.74 106.16 220.23 99.71 216.51 99.71 208.01 106.16 211.74"/><polygon class="cls-5" points="112.6 223.95 112.6 232.44 106.16 228.72 106.16 220.23 112.6 223.95"/><polygon class="cls-5" points="112.6 215.46 112.6 223.95 106.16 220.23 106.16 211.74 112.6 215.46"/><polygon class="cls-5" points="134.64 207.62 134.64 216.44 129.76 213.62 129.76 204.8 134.64 207.62"/><polygon class="cls-5" points="111.16 194.16 111.16 202.82 106.28 200.01 106.28 191.34 111.16 194.16"/><polygon class="cls-5" points="205.95 209.42 205.95 218.26 201.06 221.09 201.06 212.25 201.06 212.24 205.95 209.42"/><polygon class="cls-5" points="205.95 189.89 205.95 198.74 201.06 201.56 201.06 192.72 205.95 189.89"/><polygon class="cls-5" points="201.06 212.25 201.06 221.09 196.17 223.91 196.17 215.07 201.06 212.25"/><path class="cls-5" d="M216.61,196.24V226L153,262.73V213.46l63.62-36.72Zm-10.66,22v-8.84l-4.89,2.82h0l-4.89,2.82v8.84l4.89-2.82Zm0-19.52v-8.85l-4.89,2.83-4.89,2.82v8.84l4.89-2.82Zm-28,35.65v-8.84L173,228.37l-4.89,2.82V240l4.89-2.83Zm0-19.53V206L173,208.84h0l-4.89,2.82v8.84l4.89-2.82Z"/><polygon class="cls-5" points="129.07 242.46 138 247.62 141.21 249.47 135.93 252.43 119.36 242.86 124.64 239.9 129.07 242.46"/><polygon class="cls-5" points="201.06 192.72 201.06 201.56 196.17 204.38 196.17 195.54 201.06 192.72"/><polygon class="cls-5" points="177.92 225.55 177.92 234.39 173.03 237.21 173.03 228.37 177.92 225.55"/><polygon class="cls-5" points="173.03 237.21 168.14 240.04 168.14 231.19 173.03 228.37 173.03 237.21"/><polygon class="cls-5" points="177.92 206.02 177.92 214.86 173.03 217.69 173.03 208.85 173.03 208.84 177.92 206.02"/><polygon class="cls-5" points="173.03 208.85 173.03 217.69 168.14 220.51 168.14 211.67 173.03 208.85"/><polygon class="cls-5" points="136.27 159.66 152.99 213.46 92.34 178.45 92.34 178.44 87.86 175.86 136.27 159.66"/><polygon class="cls-5" points="117.02 248.61 133.59 258.18 131.35 259.47 114.78 249.9 117.02 248.61"/><polygon class="cls-5" points="133.59 256.02 117.02 246.45 119.43 245.06 135.93 254.59 133.59 256.02"/><polygon class="cls-5" points="141.21 255.93 131.35 261.62 131.35 259.47 133.59 258.18 133.59 256.02 135.93 254.59 135.93 252.43 141.21 249.47 141.21 251.62 141.21 253.78 141.21 255.93"/><polygon class="cls-5" points="119.36 245.02 119.36 243.31 119.36 242.86 135.93 252.43 135.93 254.59 119.43 245.06 119.36 245.02"/><polygon class="cls-5" points="114.78 252.05 114.78 249.9 131.35 259.47 131.35 261.62 114.78 252.05"/><polygon class="cls-5" points="133.59 258.18 117.02 248.61 117.02 246.45 133.59 256.02 133.59 258.18"/><polygon class="cls-5" points="138 229.51 138 247.62 129.07 242.46 129.07 224.35 138 229.51"/><path class="cls-5" d="M106.16,211.74,99.71,208v17l6.45,3.72,6.44,3.72v-17Zm13.2,31.57-27-15.6V178.45l60.65,35v49.27l-11.78-6.8v-6.46L138,247.62V229.51l-8.93-5.16v18.11l-4.43-2.56-5.28,3Zm20.16-24.06v-8.81l-4.88-2.82-4.88-2.82v8.82l4.88,2.82Zm-28.36-16.43v-8.66l-4.88-2.82-4.88-2.82v8.67l4.88,2.82Z"/><polygon class="cls-5" points="221.09 174.15 216.61 176.73 216.61 176.74 152.99 213.46 136.27 159.66 174.24 137.74 183.78 145.15 221.09 174.15"/><polygon class="cls-5" points="174.24 137.74 136.27 159.66 87.86 175.86 149.15 140.47 155.95 136.55 174.24 137.74"/><polygon class="cls-6" points="80.61 182.83 75.73 180.01 75.73 188.83 80.61 191.64 85.49 194.46 85.49 185.64 80.61 182.83"/><line class="cls-6" x1="131.58" y1="130.33" x2="67.97" y2="167.05"/><line class="cls-6" x1="67.97" y1="167.05" x2="92.34" y2="181.12"/><polyline class="cls-6" points="67.97 213.64 75.04 217.72 83.97 222.88 92.34 227.71"/><line class="cls-6" x1="67.97" y1="213.64" x2="67.97" y2="167.05"/><line class="cls-6" x1="216.61" y1="226" x2="246.32" y2="208.85"/><line class="cls-6" x1="246.32" y1="208.85" x2="246.32" y2="179.08"/><line class="cls-6" x1="246.32" y1="179.08" x2="185.66" y2="144.06"/><line class="cls-6" x1="185.66" y1="144.06" x2="183.78" y2="145.15"/><line class="cls-6" x1="216.61" y1="196.24" x2="246.32" y2="179.08"/><line class="cls-6" x1="149.15" y1="140.47" x2="131.58" y2="130.33"/><line class="cls-6" x1="80.61" y1="182.83" x2="80.61" y2="191.64"/><polyline class="cls-6" points="75.04 217.73 75.04 217.72 75.04 199.55 83.97 204.71 83.97 222.88"/><line class="cls-6" x1="141.21" y1="253.78" x2="141.21" y2="251.62"/><line class="cls-6" x1="117.02" y1="248.61" x2="117.02" y2="246.45"/><line class="cls-6" x1="133.59" y1="258.18" x2="133.59" y2="256.02"/><line class="cls-6" x1="117.02" y1="248.61" x2="133.59" y2="258.18"/><line class="cls-6" x1="92.34" y1="227.71" x2="119.36" y2="243.31"/><line class="cls-6" x1="152.99" y1="262.73" x2="216.61" y2="226"/><polygon class="cls-6" points="201.06 201.56 205.95 198.74 205.95 189.89 201.06 192.72 196.17 195.54 196.17 204.38 201.06 201.56"/><line class="cls-6" x1="114.78" y1="252.05" x2="131.35" y2="261.62"/><line class="cls-6" x1="131.35" y1="261.62" x2="131.35" y2="259.47"/><line class="cls-6" x1="114.78" y1="252.05" x2="114.78" y2="249.9"/><line class="cls-6" x1="131.35" y1="261.62" x2="141.21" y2="255.93"/><line class="cls-6" x1="141.21" y1="255.93" x2="141.21" y2="253.78"/><line class="cls-6" x1="131.35" y1="259.47" x2="133.59" y2="258.18"/><line class="cls-6" x1="114.78" y1="249.9" x2="131.35" y2="259.47"/><line class="cls-6" x1="201.06" y1="192.72" x2="201.06" y2="201.56"/><line class="cls-6" x1="173.03" y1="208.85" x2="173.03" y2="217.69"/><polygon class="cls-6" points="173.03 208.85 168.14 211.67 168.14 220.51 173.03 217.69 177.92 214.86 177.92 206.02 173.03 208.84 173.03 208.85"/><line class="cls-6" x1="135.93" y1="254.59" x2="135.93" y2="252.43"/><line class="cls-6" x1="141.21" y1="251.62" x2="141.21" y2="249.47"/><polyline class="cls-6" points="141.21 249.47 138 247.62 129.07 242.46 124.64 239.9"/><line class="cls-6" x1="124.64" y1="239.9" x2="119.36" y2="242.86"/><polyline class="cls-6" points="201.06 212.25 196.17 215.07 196.17 223.91 201.06 221.09 205.95 218.26 205.95 209.42 201.06 212.24"/><polyline class="cls-6" points="201.06 212.24 201.06 212.25 201.06 221.09"/><polygon class="cls-6" points="134.64 207.62 129.76 204.8 129.76 213.62 134.64 216.44 139.52 219.25 139.52 210.44 134.64 207.62"/><polygon class="cls-6" points="112.6 223.95 112.6 215.46 106.16 211.74 99.71 208.01 99.71 216.51 99.71 225 106.16 228.72 112.6 232.44 112.6 223.95"/><polygon class="cls-6" points="106.28 200.01 111.16 202.82 111.16 194.16 106.28 191.34 101.4 188.52 101.4 197.19 106.28 200.01"/><line class="cls-6" x1="134.64" y1="207.62" x2="134.64" y2="216.44"/><polyline class="cls-6" points="99.71 216.51 106.16 220.23 112.6 223.95"/><line class="cls-6" x1="141.21" y1="255.93" x2="152.99" y2="262.73"/><line class="cls-6" x1="119.43" y1="245.06" x2="117.02" y2="246.45"/><polyline class="cls-6" points="106.16 211.73 106.16 211.74 106.16 220.23 106.16 228.72"/><polyline class="cls-6" points="129.07 242.52 129.07 242.46 129.07 224.35 138 229.51 138 247.62 138 247.68"/><line class="cls-6" x1="117.02" y1="248.61" x2="114.78" y2="249.9"/><line class="cls-6" x1="117.02" y1="246.45" x2="133.59" y2="256.02"/><line class="cls-6" x1="106.28" y1="191.34" x2="106.28" y2="200.01"/><polygon class="cls-6" points="173.03 228.37 168.14 231.19 168.14 240.04 173.03 237.21 177.92 234.39 177.92 225.55 173.03 228.37"/><line class="cls-6" x1="133.59" y1="256.02" x2="135.93" y2="254.59"/><line class="cls-6" x1="152.99" y1="213.46" x2="136.27" y2="159.66"/><line class="cls-6" x1="136.27" y1="159.66" x2="174.24" y2="137.74"/><polyline class="cls-6" points="174.24 137.74 183.78 145.15 221.09 174.15"/><line class="cls-6" x1="216.61" y1="176.74" x2="152.99" y2="213.46"/><line class="cls-6" x1="221.09" y1="174.15" x2="216.61" y2="176.73"/><line class="cls-6" x1="87.86" y1="175.86" x2="136.27" y2="159.66"/><line class="cls-6" x1="174.24" y1="137.74" x2="155.95" y2="136.55"/><polyline class="cls-6" points="155.95 136.55 149.15 140.47 87.86 175.86"/><line class="cls-6" x1="92.34" y1="178.45" x2="152.99" y2="213.46"/><line class="cls-6" x1="87.86" y1="175.86" x2="92.34" y2="178.44"/><polyline class="cls-6" points="92.34 227.71 92.34 181.12 92.34 178.45 92.34 178.44"/><polyline class="cls-6" points="216.61 226 216.61 196.24 216.61 176.74 216.61 176.73"/><line class="cls-6" x1="152.99" y1="262.73" x2="152.99" y2="213.46"/><polyline class="cls-6" points="119.36 245.02 119.43 245.06 135.93 254.59"/><line class="cls-6" x1="119.36" y1="242.86" x2="135.93" y2="252.43"/><polyline class="cls-6" points="119.36 245.02 119.36 243.31 119.36 242.86"/><line class="cls-6" x1="135.93" y1="252.43" x2="141.21" y2="249.47"/><line class="cls-6" x1="173.03" y1="228.37" x2="173.03" y2="237.21"/></g><g id="_5_addition::garage" data-name="5 addition::garage"><polygon class="cls-5" points="200.6 116.33 214.01 131.78 187.19 116.3 200.6 116.33"/><polygon class="cls-5" points="189.27 131.98 211.88 145.04 211.88 147.62 189.27 134.56 189.27 131.98"/><polygon class="cls-5" points="189.27 121.68 189.27 124.25 189.27 126.83 189.27 129.41 189.27 131.98 189.27 134.56 189.27 137.22 187.19 136.02 187.19 116.3 214.01 131.78 214.01 151.5 211.87 150.26 211.88 150.24 211.88 147.62 211.88 145.04 211.88 142.46 211.88 139.89 211.88 137.31 211.88 134.73 189.27 121.68"/><polygon class="cls-5" points="211.88 134.73 211.88 137.31 189.27 124.25 189.27 121.68 211.88 134.73"/><polygon class="cls-5" points="189.27 126.83 189.27 124.25 211.88 137.31 211.88 139.89 189.27 126.83"/><polygon class="cls-5" points="189.27 131.98 189.27 129.41 211.88 142.46 211.88 145.04 189.27 131.98"/><polygon class="cls-5" points="211.88 139.89 211.88 142.46 189.27 129.41 189.27 126.83 211.88 139.89"/><polygon class="cls-5" points="211.87 150.26 189.27 137.22 189.27 134.56 211.88 147.62 211.88 150.24 211.87 150.26"/><polygon class="cls-5" points="236.5 95.6 200.6 116.33 187.19 116.3 223.09 95.57 236.5 95.6"/><polygon class="cls-5" points="249.91 111.05 249.91 130.77 214.01 151.5 214.01 131.78 249.91 111.05"/><polygon class="cls-5" points="236.5 95.6 249.91 111.05 214.01 131.78 200.6 116.33 236.5 95.6"/><line class="cls-6" x1="214.01" y1="131.78" x2="187.19" y2="116.3"/><line class="cls-6" x1="200.6" y1="116.33" x2="236.5" y2="95.6"/><line class="cls-6" x1="249.91" y1="130.77" x2="249.91" y2="111.05"/><line class="cls-6" x1="249.91" y1="111.05" x2="214.01" y2="131.78"/><line class="cls-6" x1="187.19" y1="136.02" x2="187.19" y2="116.3"/><line class="cls-6" x1="211.88" y1="137.31" x2="189.27" y2="124.25"/><line class="cls-6" x1="200.6" y1="116.33" x2="214.01" y2="131.78"/><line class="cls-6" x1="236.5" y1="95.6" x2="249.91" y2="111.05"/><line class="cls-6" x1="187.19" y1="116.3" x2="223.09" y2="95.57"/><line class="cls-6" x1="223.09" y1="95.57" x2="236.5" y2="95.6"/><line class="cls-6" x1="187.19" y1="116.3" x2="200.6" y2="116.33"/><line class="cls-6" x1="214.01" y1="151.5" x2="214.01" y2="131.78"/><line class="cls-6" x1="214.01" y1="151.5" x2="249.91" y2="130.77"/><polyline class="cls-6" points="187.19 136.02 189.27 137.22 211.87 150.26 214.01 151.5"/><line class="cls-6" x1="211.88" y1="139.89" x2="189.27" y2="126.83"/><line class="cls-6" x1="211.88" y1="142.46" x2="189.27" y2="129.41"/><line class="cls-6" x1="211.88" y1="145.04" x2="189.27" y2="131.98"/><line class="cls-6" x1="211.88" y1="147.62" x2="189.27" y2="134.56"/><polyline class="cls-6" points="211.88 134.73 189.27 121.68 189.27 124.25 189.27 126.83 189.27 129.41 189.27 131.98 189.27 134.56 189.27 137.22 189.27 137.33"/><polyline class="cls-6" points="211.88 134.7 211.88 134.73 211.88 137.31 211.88 139.89 211.88 142.46 211.88 145.04 211.88 147.62 211.88 150.24"/></g><g id="outline"><polygon class="cls-7" points="114.77 252.06 131.35 261.63 141.21 255.93 152.98 262.73 216.6 226 216.6 176.74 221.08 174.15 174.24 137.74 155.95 136.55 87.85 175.86 92.33 178.44 92.33 227.71 119.35 243.31 119.35 245.02 119.42 245.06 117.01 246.45 117.01 248.61 114.77 249.9 114.77 252.06"/><polyline class="cls-7" points="92.33 227.71 67.96 213.64 67.96 167.06 131.58 130.33 149.15 140.47"/><polyline class="cls-7" points="183.78 145.15 185.66 144.06 246.31 179.08 246.31 208.85 216.6 226"/></g></svg>