<?xml version="1.0" encoding="UTF-8" standalone="no"?>
<svg
   viewBox="0 0 350 250"
   version="1.1"
   id="svg94"
   sodipodi:docname="adu-corner-split.svg"
   inkscape:version="1.3.2 (1:1.3.2+202311252150+091e20ef0f)"
   width="350"
   height="250"
   xmlns:inkscape="http://www.inkscape.org/namespaces/inkscape"
   xmlns:sodipodi="http://sodipodi.sourceforge.net/DTD/sodipodi-0.dtd"
   xmlns="http://www.w3.org/2000/svg"
   xmlns:svg="http://www.w3.org/2000/svg"
   xmlns:rdf="http://www.w3.org/1999/02/22-rdf-syntax-ns#"
   xmlns:cc="http://creativecommons.org/ns#"
   xmlns:dc="http://purl.org/dc/elements/1.1/">
  <sodipodi:namedview
     id="namedview94"
     pagecolor="#ffffff"
     bordercolor="#666666"
     borderopacity="1.0"
     inkscape:showpageshadow="2"
     inkscape:pageopacity="0.0"
     inkscape:pagecheckerboard="0"
     inkscape:deskcolor="#d1d1d1"
     inkscape:zoom="2.0377573"
     inkscape:cx="134.21618"
     inkscape:cy="162.92421"
     inkscape:window-width="1920"
     inkscape:window-height="1016"
     inkscape:window-x="0"
     inkscape:window-y="0"
     inkscape:window-maximized="1"
     inkscape:current-layer="_4_horizontal_split::split" />
  <defs
     id="defs1">
    <style
       id="style1">.cls-1{opacity:0.22;}.cls-2{fill:#8eb6dc;}.cls-3,.cls-6,.cls-7{fill:none;stroke-linejoin:round;}.cls-3{stroke:#d6d6d6;stroke-width:0.75px;}.cls-4{fill:#5cffd9;}.cls-5{fill:#fff;}.cls-6,.cls-7{stroke:#1470ad;stroke-linecap:round;}.cls-6{stroke-width:0.3px;}</style>
  </defs>
  <title
     id="title1">gentle density diagram</title>
  <g
     id="lot_fill"
     data-name="lot fill"
     class="cls-1"
     transform="translate(0,-62.959615)">
    <polygon
       class="cls-2"
       points="36.66,216.53 219.94,110.72 328.69,173.5 145.4,279.32 "
       id="polygon1" />
  </g>
  <path
     style="fill:#ffffff;stroke:none;stroke-width:1px;stroke-linecap:butt;stroke-linejoin:miter;stroke-opacity:1;fill-opacity:1"
     d="m 92.33,137.07038 60.67001,35.12 -0.02,27.58001 -60.65,-35.02001 z"
     id="path1" />
  <path
     style="fill:#5cffd9;fill-opacity:1;stroke:none;stroke-width:1px;stroke-linecap:butt;stroke-linejoin:miter;stroke-opacity:1"
     d="m 120.425,131.70038 v 49.28313 l 32.555,18.78688 0.02,-27.59158 -32.575,-18.87919"
     id="path94"
     sodipodi:nodetypes="ccccc" />
  <g
     id="lot"
     transform="translate(0,-62.959615)">
    <polyline
       class="cls-3"
       points="92.33 184.39 36.66 216.53 145.4 279.32 328.69 173.5 249.91 128.02"
       id="polyline1" />
    <line
       class="cls-3"
       x1="187.19"
       y1="129.63"
       x2="173.25"
       y2="137.67"
       id="line1" />
  </g>
  <path
     style="fill:#ffffff;stroke:none;stroke-width:1px;stroke-linecap:butt;stroke-linejoin:miter;stroke-opacity:1"
     d="m 92.33,137.07039 28.095,17.15367 V 131.70038 L 136.27,96.700385 c 0,0 -48.430001,16.200005 -48.42,16.200005 0.01,0 4.48,2.58 4.48,2.58 v 22.74576"
     id="path96"
     sodipodi:nodetypes="ccccscc" />
  <g
     id="_4_horizontal_split::house"
     data-name="4 horizontal split::house"
     transform="translate(0,-62.959615)">
    <path
       style="fill:#ffffff;stroke:none;stroke-width:1px;stroke-linecap:butt;stroke-linejoin:miter;stroke-opacity:1"
       d="m 152.98,235.14999 34.055,-19.68404 v 27.88403 l -34.04499,19.38003 0.01,-27.58002"
       id="path98" />
    <path
       class="cls-4"
       d="M 216.59,176.74 216.61,226 152.98,262.73 153,235.13843 216.61,198.43 Z"
       id="path10"
       sodipodi:nodetypes="cccccc" />
    <path
       id="polygon10"
       class="cls-4"
       style="fill:#ffffff;fill-opacity:1"
       d="m 136.27,159.66 16.72,53.8 -32.565,-18.8 z"
       sodipodi:nodetypes="ccccc" />
    <path
       style="fill:#ffffff;stroke:none;stroke-width:1px;stroke-linecap:butt;stroke-linejoin:miter;stroke-opacity:1;fill-opacity:1"
       d="M 120.425,194.65999 152.99001,213.46 216.59,176.74 216.61,198.43 153,235.13842 120.425,216.25923 Z"
       id="path2" />
    <polygon
       class="cls-4"
       points="174.24,137.74 221.08,174.15 216.61,176.73 152.99,213.46 136.27,159.66 "
       id="polygon11"
       style="fill:#ffffff;fill-opacity:1" />
    <polygon
       class="cls-5"
       points="114.77,249.9 131.35,259.47 131.35,261.62 114.77,252.06 "
       id="polygon17"
       transform="translate(-25.530012,-14.831862)" />
    <polygon
       class="cls-5"
       points="117.01,248.61 117.01,246.45 133.59,256.02 133.59,258.18 "
       id="polygon18"
       transform="translate(-25.530012,-14.831862)" />
    <polygon
       class="cls-5"
       points="133.59,256.02 117.01,246.45 119.43,245.06 135.93,254.59 "
       id="polygon19"
       transform="translate(-25.530012,-14.831862)" />
    <polygon
       class="cls-5"
       points="141.21,249.47 141.21,251.62 141.21,253.78 141.21,255.93 131.35,261.62 131.35,259.47 133.59,258.18 133.59,256.02 135.93,254.59 135.93,252.43 "
       id="polygon20"
       transform="translate(-25.530012,-14.831862)" />
    <polygon
       class="cls-5"
       points="135.93,254.59 119.43,245.06 119.36,245.02 119.36,243.31 119.36,242.86 135.93,252.43 "
       id="polygon21"
       transform="translate(-25.530012,-14.831862)" />
    <polygon
       class="cls-5"
       points="141.21,249.47 135.93,252.43 119.36,242.86 124.63,239.9 129.07,242.46 138,247.62 "
       id="polygon22"
       transform="translate(-25.530012,-14.831862)" />
    <polygon
       class="cls-5"
       points="117.01,248.61 133.59,258.18 131.35,259.47 114.77,249.9 "
       id="polygon23"
       transform="translate(-25.530012,-14.831862)" />
    <polygon
       class="cls-5"
       points="138,229.51 138,247.62 129.07,242.46 129.07,224.35 "
       id="polygon24"
       transform="translate(-25.530012,-14.831862)" />
    <line
       class="cls-6"
       x1="91.479996"
       y1="233.77814"
       x2="108.05999"
       y2="243.34813"
       id="line29" />
    <line
       class="cls-6"
       x1="108.05999"
       y1="243.34813"
       x2="108.05999"
       y2="241.18813"
       id="line30" />
    <line
       class="cls-6"
       x1="91.479996"
       y1="233.77814"
       x2="91.479996"
       y2="231.61813"
       id="line31" />
    <line
       class="cls-6"
       x1="115.68"
       y1="238.94814"
       x2="115.68"
       y2="236.78813"
       id="line32" />
    <line
       class="cls-6"
       x1="89.23999"
       y1="235.06813"
       x2="105.82"
       y2="244.63814"
       id="line34" />
    <polyline
       class="cls-6"
       points="216.61 226 216.61 198.43 216.61 176.74"
       id="polyline34" />
    <polyline
       class="cls-6"
       points="152.99 262.73 152.99 235.15 152.99 213.46"
       id="polyline35" />
    <polygon
       class="cls-6"
       points="139.52,219.25 139.52,210.44 134.64,207.62 129.76,204.8 129.76,213.62 134.64,216.44 "
       id="polygon35" />
    <polygon
       class="cls-6"
       points="101.4,188.52 101.4,197.19 106.28,200.01 111.16,202.82 111.16,194.16 106.28,191.34 "
       id="polygon37" />
    <line
       class="cls-6"
       x1="134.64"
       y1="207.62"
       x2="134.64"
       y2="216.44"
       id="line37" />
    <polyline
       class="cls-6"
       points="129.07 242.52 129.07 242.46 129.07 224.35 138 229.51 138 247.62 138 247.68"
       id="polyline39"
       transform="translate(-25.530012,-14.831862)" />
    <path
       id="polyline39-5"
       style="fill:none;stroke:#1470ad;stroke-width:0.3px;stroke-linecap:round;stroke-linejoin:round"
       class="cls-6"
       d="m 199.58315,235.41787 v -18.11 l 6.92075,-4.14945 v 18.38673 0.06"
       sodipodi:nodetypes="ccccc" />
    <line
       class="cls-6"
       x1="106.28"
       y1="191.34"
       x2="106.28"
       y2="200.00999"
       id="line39" />
    <polygon
       class="cls-6"
       points="177.92,234.39 177.92,225.55 173.02,228.37 168.13,231.19 168.13,240.04 173.02,237.22 "
       id="polygon39" />
    <line
       class="cls-6"
       x1="173.02"
       y1="228.37"
       x2="173.02"
       y2="237.21001"
       id="line40" />
    <polygon
       class="cls-6"
       points="177.92,225.55 173.02,228.37 168.13,231.19 168.13,240.04 173.02,237.22 177.92,234.39 "
       id="polygon39-3"
       style="fill:none;stroke:#1470ad;stroke-width:0.3px;stroke-linecap:round;stroke-linejoin:round"
       transform="translate(9.8049915,-5.6809194)" />
    <line
       class="cls-6"
       x1="182.825"
       y1="222.68907"
       x2="182.825"
       y2="231.52908"
       id="line40-5"
       style="fill:none;stroke:#1470ad;stroke-width:0.3px;stroke-linecap:round;stroke-linejoin:round" />
    <line
       class="cls-6"
       x1="105.82"
       y1="244.63814"
       x2="108.05999"
       y2="243.34813"
       id="line41" />
    <line
       class="cls-6"
       x1="115.68"
       y1="241.09813"
       x2="115.68"
       y2="238.94814"
       id="line42" />
    <polygon
       class="cls-6"
       points="177.92,214.86 177.92,206.02 173.02,208.85 168.13,211.67 168.13,220.51 173.02,217.69 "
       id="polygon44" />
    <polyline
       class="cls-6"
       points="173.02 208.84 173.02 208.85 173.02 217.69"
       id="polyline44" />
    <line
       class="cls-6"
       x1="201.06"
       y1="192.72"
       x2="201.06"
       y2="201.56"
       id="line44" />
    <polygon
       class="cls-6"
       points="196.17,195.54 196.17,204.38 201.06,201.56 205.95,198.74 205.95,189.89 201.06,192.72 "
       id="polygon45" />
    <line
       class="cls-6"
       x1="91.479996"
       y1="233.77814"
       x2="89.23999"
       y2="235.06813"
       id="line45" />
    <line
       class="cls-6"
       x1="105.82"
       y1="246.78813"
       x2="115.68"
       y2="241.09813"
       id="line46" />
    <line
       class="cls-6"
       x1="89.23999"
       y1="237.22813"
       x2="89.23999"
       y2="235.06813"
       id="line47" />
    <line
       class="cls-6"
       x1="105.82"
       y1="246.78813"
       x2="105.82"
       y2="244.63814"
       id="line48" />
    <line
       class="cls-6"
       x1="108.05999"
       y1="241.18813"
       x2="110.39998"
       y2="239.75813"
       id="line49" />
    <line
       class="cls-6"
       x1="152.99001"
       y1="262.73001"
       x2="216.61"
       y2="226"
       id="line50" />
    <line
       class="cls-6"
       x1="141.21001"
       y1="255.92999"
       x2="152.99001"
       y2="262.73001"
       id="line51" />
    <line
       class="cls-6"
       x1="91.479996"
       y1="231.61813"
       x2="108.05999"
       y2="241.18813"
       id="line52" />
    <line
       class="cls-6"
       x1="110.39998"
       y1="239.75813"
       x2="110.39998"
       y2="237.59813"
       id="line53" />
    <line
       class="cls-6"
       x1="115.68"
       y1="236.78813"
       x2="115.68"
       y2="234.63814"
       id="line54" />
    <polyline
       class="cls-6"
       points="141.21 249.47 138 247.62 129.07 242.46 124.63 239.9"
       id="polyline54"
       transform="translate(-25.530012,-14.831862)" />
    <line
       class="cls-6"
       x1="99.099983"
       y1="225.06813"
       x2="93.829994"
       y2="228.02814"
       id="line55" />
    <line
       class="cls-6"
       x1="174.24001"
       y1="137.74001"
       x2="221.08"
       y2="174.14999"
       id="line56" />
    <line
       class="cls-6"
       x1="155.95"
       y1="136.55"
       x2="87.860001"
       y2="175.86"
       id="line57" />
    <line
       class="cls-6"
       x1="93.899994"
       y1="230.22813"
       x2="91.479996"
       y2="231.61813"
       id="line58" />
    <line
       class="cls-6"
       x1="89.23999"
       y1="237.22813"
       x2="105.82"
       y2="246.78813"
       id="line59" />
    <polyline
       class="cls-6"
       points="92.33 227.71 92.33 200.03 92.33 178.44"
       id="polyline59" />
    <polyline
       class="cls-6"
       points="119.36 245.02 119.43 245.06 135.93 254.59"
       id="polyline60"
       transform="translate(-25.530012,-14.831862)" />
    <polyline
       class="cls-6"
       points="87.86 175.86 92.33 178.44 152.99 213.46"
       id="polyline61" />
    <line
       class="cls-6"
       x1="174.24001"
       y1="137.74001"
       x2="155.95"
       y2="136.55"
       id="line61" />
    <line
       class="cls-6"
       x1="87.860001"
       y1="175.86"
       x2="136.27"
       y2="159.66"
       id="line62" />
    <polyline
       class="cls-6"
       points="221.08 174.15 216.61 176.73 152.99 213.46"
       id="polyline62" />
    <line
       class="cls-6"
       x1="136.27"
       y1="159.66"
       x2="174.24001"
       y2="137.74001"
       id="line63" />
    <line
       class="cls-6"
       x1="93.829994"
       y1="228.02814"
       x2="110.39998"
       y2="237.59813"
       id="line64" />
    <polyline
       class="cls-6"
       points="119.36 245.02 119.36 243.31 119.36 242.86"
       id="polyline64"
       transform="translate(-25.530012,-14.831862)" />
    <line
       class="cls-6"
       x1="152.99001"
       y1="213.46001"
       x2="136.27"
       y2="159.66"
       id="line65" />
    <line
       class="cls-6"
       x1="110.39998"
       y1="237.59813"
       x2="115.68"
       y2="234.63814"
       id="line66" />
    <polygon
       class="cls-6"
       points="99.71,216.51 99.71,225 106.16,228.72 112.6,232.44 112.6,223.95 112.6,215.46 106.16,211.74 99.71,208.01 "
       id="polygon36"
       transform="translate(27.831846,16.428138)"
       style="fill:none;stroke:#1470ad;stroke-width:0.3px;stroke-linecap:round;stroke-linejoin:round" />
    <polyline
       class="cls-6"
       points="99.71 216.51 106.16 220.23 112.6 223.95"
       id="polyline37"
       transform="translate(27.831846,16.428138)"
       style="fill:none;stroke:#1470ad;stroke-width:0.3px;stroke-linecap:round;stroke-linejoin:round" />
    <polyline
       class="cls-6"
       points="106.16 211.74 106.16 220.23 106.16 228.72"
       id="polyline38"
       transform="translate(27.831846,16.428138)"
       style="fill:none;stroke:#1470ad;stroke-width:0.3px;stroke-linecap:round;stroke-linejoin:round" />
  </g>
  <g
     id="_4_horizontal_split::garage"
     data-name="4 horizontal split::garage"
     transform="translate(0,-62.959615)">
    <polygon
       class="cls-5"
       points="189.27,124.25 211.88,137.31 211.88,139.89 189.27,126.83 "
       id="polygon66" />
    <polygon
       class="cls-5"
       points="189.27,131.98 211.88,145.04 211.88,147.62 189.27,134.56 "
       id="polygon67" />
    <polygon
       class="cls-5"
       points="211.88,147.62 211.88,145.04 211.88,142.46 211.88,139.89 211.88,137.31 211.88,134.73 189.27,121.68 189.27,124.25 189.27,126.83 189.27,129.41 189.27,131.98 189.27,134.56 189.27,137.22 187.19,136.02 187.19,116.3 214,131.78 214,151.5 211.87,150.27 211.88,150.25 "
       id="polygon68" />
    <polygon
       class="cls-5"
       points="189.27,129.41 211.88,142.46 211.88,145.04 189.27,131.98 "
       id="polygon69" />
    <polygon
       class="cls-5"
       points="249.91,111.05 249.91,130.77 214,151.5 214,131.78 "
       id="polygon70" />
    <polygon
       class="cls-5"
       points="189.27,134.56 211.88,147.62 211.88,150.25 211.87,150.27 189.27,137.22 "
       id="polygon71" />
    <polygon
       class="cls-5"
       points="214,131.78 187.19,116.3 200.6,116.33 "
       id="polygon72" />
    <polygon
       class="cls-5"
       points="211.88,134.73 211.88,137.31 189.27,124.25 189.27,121.68 "
       id="polygon73" />
    <polygon
       class="cls-5"
       points="211.88,139.89 211.88,142.46 189.27,129.41 189.27,126.83 "
       id="polygon74" />
    <polygon
       class="cls-5"
       points="236.5,95.6 249.91,111.05 214,131.78 200.6,116.33 "
       id="polygon75" />
    <polygon
       class="cls-5"
       points="236.5,95.6 200.6,116.33 187.19,116.3 223.09,95.57 "
       id="polygon76" />
    <line
       class="cls-6"
       x1="200.60001"
       y1="116.33"
       x2="236.5"
       y2="95.599998"
       id="line76" />
    <line
       class="cls-6"
       x1="211.88"
       y1="137.31"
       x2="189.27"
       y2="124.25"
       id="line77" />
    <line
       class="cls-6"
       x1="187.19"
       y1="136.02"
       x2="187.19"
       y2="116.3"
       id="line78" />
    <line
       class="cls-6"
       x1="214"
       y1="131.78"
       x2="187.19"
       y2="116.3"
       id="line79" />
    <line
       class="cls-6"
       x1="214"
       y1="131.78"
       x2="249.91"
       y2="111.05"
       id="line80" />
    <line
       class="cls-6"
       x1="249.91"
       y1="130.77"
       x2="249.91"
       y2="111.05"
       id="line81" />
    <polyline
       class="cls-6"
       points="211.88 134.73 189.27 121.68 189.27 124.25 189.27 126.83 189.27 129.41 189.27 131.98 189.27 134.56 189.27 137.22 189.27 137.33"
       id="polyline81" />
    <line
       class="cls-6"
       x1="214"
       y1="151.5"
       x2="214"
       y2="131.78"
       id="line82" />
    <line
       class="cls-6"
       x1="214"
       y1="151.5"
       x2="249.91"
       y2="130.77"
       id="line83" />
    <polyline
       class="cls-6"
       points="187.19 136.02 189.27 137.22 211.87 150.27 214 151.5"
       id="polyline83" />
    <line
       class="cls-6"
       x1="211.88"
       y1="147.62"
       x2="189.27"
       y2="134.56"
       id="line84" />
    <line
       class="cls-6"
       x1="211.88"
       y1="145.03999"
       x2="189.27"
       y2="131.98"
       id="line85" />
    <line
       class="cls-6"
       x1="200.60001"
       y1="116.33"
       x2="214"
       y2="131.78"
       id="line86" />
    <line
       class="cls-6"
       x1="236.5"
       y1="95.599998"
       x2="249.91"
       y2="111.05"
       id="line87" />
    <line
       class="cls-6"
       x1="211.88"
       y1="142.46001"
       x2="189.27"
       y2="129.41"
       id="line88" />
    <polyline
       class="cls-6"
       points="211.88 134.7 211.88 134.73 211.88 137.31 211.88 139.89 211.88 142.46 211.88 145.04 211.88 147.62 211.88 150.25"
       id="polyline88" />
    <line
       class="cls-6"
       x1="211.88"
       y1="139.89"
       x2="189.27"
       y2="126.83"
       id="line89" />
    <line
       class="cls-6"
       x1="187.19"
       y1="116.3"
       x2="200.60001"
       y2="116.33"
       id="line90" />
    <line
       class="cls-6"
       x1="223.09"
       y1="95.57"
       x2="236.5"
       y2="95.599998"
       id="line91" />
    <line
       class="cls-6"
       x1="187.19"
       y1="116.3"
       x2="223.09"
       y2="95.57"
       id="line92" />
  </g>
  <g
     id="_4_horizontal_split::split"
     data-name="4 horizontal split::split"
     transform="translate(0,-62.959615)">
    <path
       style="fill:none;stroke:#1470ad;stroke-width:1px;stroke-linecap:butt;stroke-linejoin:miter;stroke-opacity:1"
       d="M 216.61,198.43 153,235.13842 120.425,216.25923 v 6.17501 7.4189 14.08999"
       id="path95"
       sodipodi:nodetypes="cccccc" />
  </g>
  <g
     id="outline"
     transform="translate(0,-62.959615)">
    <path
       id="polygon94"
       class="cls-7"
       style="fill:none;stroke:#1470ad;stroke-linecap:round;stroke-linejoin:round"
       d="m 216.6,226 v -49.26 l 4.48,-2.59 -46.84,-36.41 -18.29,-1.19 -68.1,39.31 4.48,2.58 v 49.27 l 1.499988,0.76814 v 1.71 l -2.349992,1.42999 v 2.16001 l -2.240006,1.28999 -2e-6,2.16001 16.580002,9.56 9.86,-5.69 L 152.98,262.73 Z"
       sodipodi:nodetypes="cccccccccccccccccc" />
  </g>
  <metadata
     id="metadata96">
    <rdf:RDF>
      <cc:Work
         rdf:about="">
        <dc:title>gentle density diagram</dc:title>
      </cc:Work>
    </rdf:RDF>
  </metadata>
</svg>
