<?xml version="1.0" encoding="UTF-8" standalone="no"?>
<svg
   viewBox="0 0 350 250"
   version="1.1"
   id="svg90"
   sodipodi:docname="adu-detached-garage.svg"
   inkscape:version="1.4.2 (1:1.4.2+202505120738+ebf0e940d0)"
   width="350"
   height="250"
   xmlns:inkscape="http://www.inkscape.org/namespaces/inkscape"
   xmlns:sodipodi="http://sodipodi.sourceforge.net/DTD/sodipodi-0.dtd"
   xmlns="http://www.w3.org/2000/svg"
   xmlns:svg="http://www.w3.org/2000/svg"
   xmlns:rdf="http://www.w3.org/1999/02/22-rdf-syntax-ns#"
   xmlns:cc="http://creativecommons.org/ns#"
   xmlns:dc="http://purl.org/dc/elements/1.1/">
  <sodipodi:namedview
     id="namedview90"
     pagecolor="#ffffff"
     bordercolor="#666666"
     borderopacity="1.0"
     inkscape:showpageshadow="2"
     inkscape:pageopacity="0.0"
     inkscape:pagecheckerboard="0"
     inkscape:deskcolor="#d1d1d1"
     showguides="false"
     inkscape:zoom="3.2001633"
     inkscape:cx="198.27113"
     inkscape:cy="72.183815"
     inkscape:window-width="1920"
     inkscape:window-height="1043"
     inkscape:window-x="0"
     inkscape:window-y="0"
     inkscape:window-maximized="1"
     inkscape:current-layer="svg90" />
  <defs
     id="defs1">
    <style
       id="style1">.cls-1{opacity:0.22;}.cls-2{fill:#8eb6dc;}.cls-3,.cls-5,.cls-7{fill:none;stroke-linejoin:round;}.cls-3{stroke:#d6d6d6;stroke-width:0.75px;}.cls-4{fill:gold;}.cls-5,.cls-7{stroke:#1470ad;stroke-linecap:round;}.cls-5{stroke-width:0.3px;}.cls-6{fill:#fff;}</style>
  </defs>
  <title
     id="title1">gentle density diagram</title>
  <polygon
     class="cls-2"
     points="145.48,279.32 36.77,216.53 219.99,110.72 328.69,173.5 "
     id="polygon1"
     transform="translate(-1.6107882,-63.058538)"
     style="opacity:0.22" />
  <polyline
     class="cls-3"
     points="92.42 184.39 36.77 216.53 145.48 279.32 328.69 173.5 249.94 128.02"
     id="polyline1"
     transform="translate(-1.6107882,-63.058538)" />
  <path
     style="fill:none;stroke:#d6d6d6;stroke-width:1px;stroke-linecap:butt;stroke-linejoin:miter;stroke-opacity:1"
     d="M 158.65805,82.250004 187.1,65.875944"
     id="path90" />
  <polygon
     class="cls-4"
     points="243.28,120.58 243.28,127.95 239.2,130.31 239.2,130.3 239.2,122.93 "
     id="polygon2"
     transform="matrix(1.2405589,0,0,1.2410129,-59.489823,-93.574606)"
     style="stroke-width:0.805942" />
  <polygon
     class="cls-4"
     points="239.2,130.3 239.2,130.31 235.13,132.66 235.13,125.28 239.2,122.93 "
     id="polygon3"
     transform="matrix(1.2405589,0,0,1.2410129,-59.489823,-93.574606)"
     style="stroke-width:0.805942" />
  <polygon
     class="cls-4"
     points="200.65,116.33 214.05,131.78 187.25,116.3 "
     id="polygon4"
     transform="matrix(1.2405589,0,0,1.2410129,-59.489823,-93.574606)"
     style="stroke-width:0.805942;fill:#8dbf2e;fill-opacity:1.0" />
  <polygon
     class="cls-4"
     points="236.54,95.61 200.65,116.33 187.25,116.3 223.14,95.57 "
     id="polygon5"
     transform="matrix(1.2405589,0,0,1.2410129,-59.411702,-93.574606)"
     style="stroke-width:0.805942;fill:#8dbf2e;fill-opacity:1.0" />
  <path
     class="cls-4"
     d="M 250.57545,44.239882 V 68.725069 L 206.0518,94.451265 V 69.966081 Z m -8.26213,21.03517 v -9.146265 l -5.06147,2.916381 -5.04908,2.91638 v 9.158676 l 5.04908,-2.916381 z"
     id="path8"
     style="stroke-width:1;fill:#8dbf2e;fill-opacity:1.0" />
  <polygon
     class="cls-4"
     points="200.65,116.33 236.54,95.61 249.94,111.05 214.05,131.78 "
     id="polygon9"
     transform="matrix(1.2405589,0,0,1.2410129,-59.489823,-93.574606)"
     style="stroke-width:0.805942;fill:#8dbf2e;fill-opacity:1.0" />
  <line
     class="cls-5"
     x1="237.25186"
     y1="58.983116"
     x2="237.25186"
     y2="68.129387"
     id="line10" />
  <line
     class="cls-5"
     x1="250.57547"
     y1="68.725067"
     x2="250.57547"
     y2="44.239891"
     id="line11" />
  <line
     class="cls-5"
     x1="172.80482"
     y1="75.227989"
     x2="172.80482"
     y2="50.755203"
     id="line12" />
  <path
     style="fill:#8dbf2e;fill-opacity:1.0;stroke:none;stroke-width:1px;stroke-linecap:butt;stroke-linejoin:miter;stroke-opacity:1"
     d="m 172.80482,50.755201 33.24698,19.21088 V 94.438859 L 172.80482,75.227977 Z"
     id="path1" />
  <polyline
     class="cls-5"
     points="187.25 136.02 202.37 144.76 208.97 148.57 214.05 151.51"
     id="polyline12"
     transform="matrix(1.2405589,0,0,1.2410129,-59.489823,-93.574606)" />
  <line
     class="cls-5"
     x1="206.0518"
     y1="94.451271"
     x2="250.57547"
     y2="68.725067"
     id="line13" />
  <line
     class="cls-5"
     x1="206.0518"
     y1="94.451271"
     x2="206.0518"
     y2="69.96608"
     id="line14" />
  <line
     class="cls-5"
     x1="172.80482"
     y1="50.755203"
     x2="189.4283"
     y2="50.792439"
     id="line15" />
  <line
     class="cls-5"
     x1="217.32848"
     y1="25.029001"
     x2="233.95197"
     y2="25.078648"
     id="line16" />
  <line
     class="cls-5"
     x1="172.80482"
     y1="50.755203"
     x2="217.32848"
     y2="25.029001"
     id="line17" />
  <line
     class="cls-5"
     x1="233.95197"
     y1="25.078648"
     x2="250.57547"
     y2="44.239891"
     id="line18" />
  <line
     class="cls-5"
     x1="189.4283"
     y1="50.792439"
     x2="206.0518"
     y2="69.96608"
     id="line19" />
  <line
     class="cls-5"
     x1="189.4283"
     y1="50.792439"
     x2="233.95197"
     y2="25.078648"
     id="line20" />
  <line
     class="cls-5"
     x1="206.0518"
     y1="69.96608"
     x2="250.57547"
     y2="44.239891"
     id="line21" />
  <path
     id="polyline19"
     class="cls-5"
     style="fill:none;stroke:#1470ad;stroke-width:0.3px;stroke-linecap:round;stroke-linejoin:round"
     d="M 217.70065,87.773092 V 69.492971 l 8.18768,-4.849345 v 18.267711"
     sodipodi:nodetypes="cccc" />
  <line
     class="cls-5"
     x1="206.0518"
     y1="69.96608"
     x2="172.80482"
     y2="50.755203"
     id="line22"
     style="fill:#8dbf2e;fill-opacity:1.0" />
  <polygon
     class="cls-5"
     points="239.2,122.93 235.13,125.28 235.13,132.66 239.2,130.31 243.28,127.95 243.28,120.58 "
     id="polygon22"
     transform="matrix(1.2405589,0,0,1.2410129,-59.489823,-93.574606)" />
  <polygon
     class="cls-6"
     points="106.24,228.72 106.24,220.23 112.69,223.95 112.69,232.45 "
     id="polygon23"
     transform="translate(0,-54.149996)" />
  <polygon
     class="cls-6"
     points="117.1,248.61 117.1,246.45 133.67,256.02 133.67,258.18 "
     id="polygon24"
     transform="translate(0,-54.149996)" />
  <polygon
     class="cls-6"
     points="131.43,259.47 114.86,249.9 117.1,248.61 133.67,258.18 "
     id="polygon25"
     transform="translate(0,-54.149996)" />
  <polygon
     class="cls-6"
     points="131.43,261.63 114.86,252.06 114.86,249.9 131.43,259.47 "
     id="polygon26"
     transform="translate(0,-54.149996)" />
  <polygon
     class="cls-6"
     points="106.36,200.01 106.36,191.34 111.24,194.16 111.24,202.83 "
     id="polygon27"
     transform="translate(0,-54.149996)" />
  <polygon
     class="cls-6"
     points="99.8,216.51 99.8,208.02 106.24,211.74 106.24,220.23 "
     id="polygon28"
     transform="translate(0,-54.149996)" />
  <polygon
     class="cls-6"
     points="106.24,220.23 106.24,211.74 112.69,215.46 112.69,223.95 "
     id="polygon29"
     transform="translate(0,-54.149996)" />
  <polygon
     class="cls-6"
     points="129.15,242.46 129.15,224.35 138.08,229.51 138.08,247.62 "
     id="polygon30"
     transform="translate(0,-54.149996)" />
  <polygon
     class="cls-6"
     points="133.67,256.02 117.1,246.45 119.51,245.06 136.01,254.59 "
     id="polygon31"
     transform="translate(0,-54.149996)" />
  <polygon
     class="cls-6"
     points="129.84,213.62 129.84,204.81 134.71,207.62 134.71,216.44 "
     id="polygon32"
     transform="translate(0,-54.149996)" />
  <polygon
     class="cls-6"
     points="99.8,225 99.8,216.51 106.24,220.23 106.24,228.72 "
     id="polygon33"
     transform="translate(0,-54.149996)" />
  <polygon
     class="cls-6"
     points="136.01,254.59 136.01,252.44 141.28,249.47 141.28,251.63 141.28,253.78 141.28,255.93 131.43,261.63 131.43,259.47 133.67,258.18 133.67,256.02 "
     id="polygon34"
     transform="translate(0,-54.149996)" />
  <polygon
     class="cls-6"
     points="101.49,197.19 101.49,188.53 106.36,191.34 106.36,200.01 "
     id="polygon35"
     transform="translate(0,-54.149996)" />
  <polygon
     class="cls-6"
     points="136.01,252.44 136.01,254.59 119.51,245.06 119.44,245.02 119.44,243.32 119.44,242.87 "
     id="polygon36"
     transform="translate(0,-54.149996)" />
  <polygon
     class="cls-6"
     points="173.09,217.69 173.09,208.85 177.97,206.02 177.97,214.87 "
     id="polygon37"
     transform="translate(0,-54.149996)" />
  <polygon
     class="cls-6"
     points="201.11,221.09 201.11,212.25 206,209.42 206,218.27 "
     id="polygon38"
     transform="translate(0,-54.149996)" />
  <polygon
     class="cls-6"
     points="168.2,220.51 168.2,211.67 173.09,208.85 173.09,217.69 "
     id="polygon39"
     transform="translate(0,-54.149996)" />
  <polygon
     class="cls-6"
     points="201.11,201.56 201.11,192.72 206,189.9 206,198.74 "
     id="polygon40"
     transform="translate(0,-54.149996)" />
  <polygon
     class="cls-6"
     points="173.09,237.22 168.2,240.04 168.2,231.2 173.09,228.37 173.09,237.21 "
     id="polygon41"
     transform="translate(0,-54.149996)" />
  <polygon
     class="cls-6"
     points="196.22,195.54 201.11,192.72 201.11,201.56 196.22,204.39 "
     id="polygon42"
     transform="translate(0,-54.149996)" />
  <polygon
     class="cls-6"
     points="173.09,237.21 173.09,228.37 177.97,225.55 177.97,234.39 "
     id="polygon43"
     transform="translate(0,-54.149996)" />
  <polygon
     class="cls-6"
     points="134.71,216.44 134.71,207.62 139.59,210.44 139.59,219.26 "
     id="polygon44"
     transform="translate(0,-54.149996)" />
  <polygon
     class="cls-6"
     points="196.22,223.91 196.22,215.07 201.11,212.25 201.11,221.09 "
     id="polygon45"
     transform="translate(0,-54.149996)" />
  <polygon
     class="cls-6"
     points="138.08,247.62 141.28,249.47 136.01,252.44 119.44,242.87 124.71,239.9 129.15,242.46 "
     id="polygon46"
     transform="translate(0,-54.149996)" />
  <path
     class="cls-6"
     d="m 119.44,188.72 v 0.45 l -27,-15.6 v -49.27 0 l 60.63,35 v 49.27 l -11.77,-6.8 v -6.46 l -3.2,-1.85 v -18.1 l -8.93,-5.16 v 18.11 l -4.44,-2.56 z m 20.15,-23.61 v -8.82 l -4.88,-2.82 -4.87,-2.81 v 8.81 l 4.87,2.82 z m -26.9,13.19 v -17 l -6.45,-3.72 -6.44,-3.73 v 17 l 6.44,3.72 z m -1.45,-29.62 v -8.67 l -4.88,-2.82 -4.87,-2.81 v 8.66 l 4.87,2.82 z"
     id="path46" />
  <path
     class="cls-6"
     d="m 178,151.85 -4.88,2.83 -4.89,2.82 v 8.84 l 4.89,-2.82 4.88,-2.82 z m 38.68,-29.28 v 49.28 l -63.6,36.72 V 159.31 Z M 206,164.12 v -8.85 l -4.89,2.83 -4.89,2.82 v 8.84 l 4.89,-2.82 z m 0,-19.53 v -8.84 l -4.89,2.82 -4.89,2.82 v 8.85 l 4.89,-2.83 z m -28,35.65 v -8.84 l -4.88,2.82 -4.89,2.83 v 8.8 l 4.89,-2.82 v 0 z"
     id="path47" />
  <polygon
     class="cls-6"
     points="216.65,176.74 153.05,213.46 136.34,159.67 174.3,137.74 221.13,174.15 "
     id="polygon47"
     transform="translate(0,-54.149996)" />
  <polygon
     class="cls-6"
     points="92.42,178.44 87.95,175.86 136.34,159.67 153.05,213.46 "
     id="polygon48"
     transform="translate(0,-54.149996)" />
  <polygon
     class="cls-6"
     points="87.95,175.86 156.02,136.55 174.3,137.74 136.34,159.67 "
     id="polygon49"
     transform="translate(0,-54.149996)" />
  <polyline
     class="cls-5"
     points="87.95 175.86 92.42 178.44 153.05 213.46"
     id="polyline49"
     transform="translate(0,-54.149996)" />
  <line
     class="cls-5"
     x1="131.42999"
     y1="207.48001"
     x2="141.28"
     y2="201.78"
     id="line49" />
  <line
     class="cls-5"
     x1="114.86"
     y1="197.91"
     x2="114.86"
     y2="195.75"
     id="line50" />
  <line
     class="cls-5"
     x1="131.42999"
     y1="207.48001"
     x2="131.42999"
     y2="205.32001"
     id="line51" />
  <line
     class="cls-5"
     x1="114.86"
     y1="197.91"
     x2="131.42999"
     y2="207.48001"
     id="line52" />
  <line
     class="cls-5"
     x1="136.34"
     y1="105.52"
     x2="174.3"
     y2="83.590012"
     id="line53" />
  <line
     class="cls-5"
     x1="153.05"
     y1="159.31001"
     x2="136.34"
     y2="105.52"
     id="line54" />
  <line
     class="cls-5"
     x1="153.05"
     y1="208.58002"
     x2="153.05"
     y2="159.31001"
     id="line55" />
  <line
     class="cls-5"
     x1="131.42999"
     y1="205.32001"
     x2="133.67"
     y2="204.03"
     id="line56" />
  <line
     class="cls-5"
     x1="153.05"
     y1="208.58002"
     x2="216.64999"
     y2="171.86"
     id="line57" />
  <line
     class="cls-5"
     x1="92.419998"
     y1="173.57001"
     x2="119.44"
     y2="189.17001"
     id="line58" />
  <line
     class="cls-5"
     x1="156.02"
     y1="82.400009"
     x2="87.949997"
     y2="121.71001"
     id="line59" />
  <line
     class="cls-5"
     x1="174.3"
     y1="83.590012"
     x2="221.13"
     y2="120"
     id="line60" />
  <line
     class="cls-5"
     x1="114.86"
     y1="195.75"
     x2="131.42999"
     y2="205.32001"
     id="line61" />
  <line
     class="cls-5"
     x1="117.1"
     y1="194.46001"
     x2="133.67"
     y2="204.03"
     id="line62" />
  <line
     class="cls-5"
     x1="133.67"
     y1="204.03"
     x2="133.67"
     y2="201.87"
     id="line63" />
  <line
     class="cls-5"
     x1="117.1"
     y1="194.46001"
     x2="117.1"
     y2="192.3"
     id="line64" />
  <line
     class="cls-5"
     x1="141.28"
     y1="199.63"
     x2="141.28"
     y2="197.48001"
     id="line65" />
  <line
     class="cls-5"
     x1="117.1"
     y1="194.46001"
     x2="114.86"
     y2="195.75"
     id="line66" />
  <line
     class="cls-5"
     x1="117.1"
     y1="192.3"
     x2="133.67"
     y2="201.87"
     id="line67" />
  <line
     class="cls-5"
     x1="141.28"
     y1="197.48001"
     x2="141.28"
     y2="195.32001"
     id="line68" />
  <polyline
     class="cls-5"
     points="141.28 249.47 138.08 247.62 129.15 242.46 124.71 239.9"
     id="polyline68"
     transform="translate(0,-54.149996)" />
  <line
     class="cls-5"
     x1="124.71"
     y1="185.75"
     x2="119.44"
     y2="188.72"
     id="line69" />
  <line
     class="cls-5"
     x1="119.44"
     y1="188.72"
     x2="136.00999"
     y2="198.29001"
     id="line70" />
  <line
     class="cls-5"
     x1="136.00999"
     y1="198.29001"
     x2="141.28"
     y2="195.32001"
     id="line71" />
  <line
     class="cls-5"
     x1="141.28"
     y1="201.78"
     x2="153.05"
     y2="208.58002"
     id="line72" />
  <line
     class="cls-5"
     x1="133.67"
     y1="201.87"
     x2="136.00999"
     y2="200.44"
     id="line73" />
  <polygon
     class="cls-5"
     points="201.11,201.56 206,198.74 206,189.9 201.11,192.72 196.22,195.54 196.22,204.39 "
     id="polygon73"
     transform="translate(0,-54.149996)" />
  <line
     class="cls-5"
     x1="201.11"
     y1="138.57001"
     x2="201.11"
     y2="147.41"
     id="line74" />
  <polyline
     class="cls-5"
     points="221.13 174.15 216.65 176.74 153.05 213.46"
     id="polyline74"
     transform="translate(0,-54.149996)" />
  <line
     class="cls-5"
     x1="173.09"
     y1="154.70001"
     x2="173.09"
     y2="163.54001"
     id="line75" />
  <polygon
     class="cls-5"
     points="173.09,208.85 168.2,211.67 168.2,220.51 173.09,217.69 177.97,214.87 177.97,206.02 "
     id="polygon75"
     transform="translate(0,-54.149996)" />
  <polygon
     class="cls-5"
     points="201.11,221.09 206,218.27 206,209.42 201.11,212.25 196.22,215.07 196.22,223.91 "
     id="polygon76"
     transform="translate(0,-54.149996)" />
  <line
     class="cls-5"
     x1="201.11"
     y1="158.10001"
     x2="201.11"
     y2="166.94"
     id="line76" />
  <line
     class="cls-5"
     x1="216.64999"
     y1="171.86"
     x2="216.64999"
     y2="122.59001"
     id="line77" />
  <line
     class="cls-5"
     x1="92.419998"
     y1="173.57001"
     x2="92.419998"
     y2="124.3"
     id="line78" />
  <line
     class="cls-5"
     x1="119.51"
     y1="190.91"
     x2="117.1"
     y2="192.3"
     id="line79" />
  <polyline
     class="cls-5"
     points="119.44 245.02 119.51 245.06 136.01 254.59"
     id="polyline79"
     transform="translate(0,-54.149996)" />
  <line
     class="cls-5"
     x1="136.00999"
     y1="200.44"
     x2="136.00999"
     y2="198.29001"
     id="line80" />
  <polyline
     class="cls-5"
     points="119.44 245.02 119.44 243.32 119.44 242.87"
     id="polyline80"
     transform="translate(0,-54.149996)" />
  <line
     class="cls-5"
     x1="174.3"
     y1="83.590012"
     x2="156.02"
     y2="82.400009"
     id="line81" />
  <line
     class="cls-5"
     x1="141.28"
     y1="201.78"
     x2="141.28"
     y2="199.63"
     id="line82" />
  <line
     class="cls-5"
     x1="173.09"
     y1="174.22"
     x2="173.09"
     y2="183.06001"
     id="line83" />
  <polygon
     class="cls-5"
     points="177.97,225.55 173.09,228.37 168.2,231.2 168.2,240.04 173.09,237.22 173.09,237.21 177.97,234.39 "
     id="polygon83"
     transform="translate(0,-54.149996)" />
  <line
     class="cls-5"
     x1="106.36"
     y1="137.19"
     x2="106.36"
     y2="145.86"
     id="line84" />
  <polyline
     class="cls-5"
     points="129.15 242.52 129.15 242.46 129.15 224.35 138.08 229.51 138.08 247.62 138.08 247.68"
     id="polyline84"
     transform="translate(0,-54.149996)" />
  <polyline
     class="cls-5"
     points="106.24 211.74 106.24 220.23 106.24 228.72"
     id="polyline85"
     transform="translate(0,-54.149996)" />
  <polyline
     class="cls-5"
     points="99.8 216.51 106.24 220.23 112.69 223.95"
     id="polyline86"
     transform="translate(0,-54.149996)" />
  <line
     class="cls-5"
     x1="134.71001"
     y1="153.47"
     x2="134.71001"
     y2="162.29001"
     id="line86" />
  <polygon
     class="cls-5"
     points="106.36,200.01 111.24,202.83 111.24,194.16 106.36,191.34 101.49,188.53 101.49,197.19 "
     id="polygon86"
     transform="translate(0,-54.149996)" />
  <polygon
     class="cls-5"
     points="106.24,228.72 112.69,232.45 112.69,223.95 112.69,215.46 106.24,211.74 99.8,208.02 99.8,216.51 99.8,225 "
     id="polygon87"
     transform="translate(0,-54.149996)" />
  <polygon
     class="cls-5"
     points="134.71,207.62 129.84,204.81 129.84,213.62 134.71,216.44 139.59,219.26 139.59,210.44 "
     id="polygon88"
     transform="translate(0,-54.149996)" />
  <line
     class="cls-5"
     x1="87.949997"
     y1="121.71001"
     x2="136.34"
     y2="105.52"
     id="line88" />
  <polygon
     class="cls-7"
     points="119.44,243.31 119.44,245.02 119.51,245.06 117.1,246.45 117.1,248.61 114.86,249.9 114.86,252.05 131.43,261.62 141.28,255.93 153.06,262.73 216.65,226 216.65,176.73 221.13,174.15 174.31,137.74 156.02,136.54 87.95,175.86 92.42,178.44 92.42,227.71 "
     id="polygon89"
     transform="translate(0,-54.149996)" />
  <polygon
     class="cls-7"
     points="236.54,95.6 223.14,95.57 187.25,116.3 187.25,136.02 214.05,151.5 249.94,130.77 249.94,111.05 "
     id="polygon90"
     transform="matrix(1.2405589,0,0,1.2410129,-59.489823,-93.574606)"
     style="stroke-width:0.805942" />
  <line
     class="cls-10"
     x1="203.37842"
     y1="89.418953"
     x2="175.31697"
     y2="73.211319"
     id="line89"
     style="fill:none;stroke:#1470ad;stroke-width:0.3px;stroke-linecap:round;stroke-linejoin:round" />
  <line
     class="cls-10"
     x1="203.37842"
     y1="86.217148"
     x2="175.31697"
     y2="70.009529"
     id="line90"
     style="fill:none;stroke:#1470ad;stroke-width:0.3px;stroke-linecap:round;stroke-linejoin:round" />
  <line
     class="cls-10"
     x1="203.37842"
     y1="83.015358"
     x2="175.31697"
     y2="66.820114"
     id="line91"
     style="fill:none;stroke:#1470ad;stroke-width:0.3px;stroke-linecap:round;stroke-linejoin:round" />
  <line
     class="cls-10"
     x1="203.37842"
     y1="79.825943"
     x2="175.31697"
     y2="63.618332"
     id="line92"
     style="fill:none;stroke:#1470ad;stroke-width:0.3px;stroke-linecap:round;stroke-linejoin:round" />
  <line
     class="cls-10"
     x1="203.37842"
     y1="76.624107"
     x2="175.31697"
     y2="60.416489"
     id="line93"
     style="fill:none;stroke:#1470ad;stroke-width:0.3px;stroke-linecap:round;stroke-linejoin:round" />
  <polyline
     class="cls-10"
     points="211.88 134.7 211.88 134.73 211.88 137.31 211.88 139.89 211.88 142.46 211.88 145.04 211.88 147.62 211.88 150.24"
     id="polyline93"
     style="fill:none;stroke:#1470ad;stroke-width:0.241783px;stroke-linecap:round;stroke-linejoin:round"
     transform="matrix(1.2405589,0,0,1.2410129,-59.471216,-93.779369)" />
  <polyline
     class="cls-10"
     points="211.88 134.73 189.26 121.68 189.26 124.25 189.26 126.83 189.26 129.41 189.26 131.98 189.26 134.56 189.26 137.22 189.26 137.33"
     id="polyline98"
     style="fill:none;stroke:#1470ad;stroke-width:0.241783px;stroke-linecap:round;stroke-linejoin:round"
     transform="matrix(1.2405589,0,0,1.2410129,-59.471216,-93.779369)" />
  <metadata
     id="metadata1">
    <rdf:RDF>
      <cc:Work
         rdf:about="">
        <dc:title>gentle density diagram</dc:title>
      </cc:Work>
    </rdf:RDF>
  </metadata>
</svg>
