<?xml version="1.0" encoding="UTF-8" standalone="no"?>
<svg
   viewBox="0 0 350 250"
   version="1.1"
   id="svg112"
   sodipodi:docname="adu-rearside-addition.svg"
   width="350"
   height="250"
   inkscape:version="1.3.2 (1:1.3.2+202311252150+091e20ef0f)"
   xmlns:inkscape="http://www.inkscape.org/namespaces/inkscape"
   xmlns:sodipodi="http://sodipodi.sourceforge.net/DTD/sodipodi-0.dtd"
   xmlns="http://www.w3.org/2000/svg"
   xmlns:svg="http://www.w3.org/2000/svg"
   xmlns:rdf="http://www.w3.org/1999/02/22-rdf-syntax-ns#"
   xmlns:cc="http://creativecommons.org/ns#"
   xmlns:dc="http://purl.org/dc/elements/1.1/">
  <sodipodi:namedview
     id="namedview112"
     pagecolor="#ffffff"
     bordercolor="#666666"
     borderopacity="1.0"
     inkscape:showpageshadow="2"
     inkscape:pageopacity="0.0"
     inkscape:pagecheckerboard="0"
     inkscape:deskcolor="#d1d1d1"
     inkscape:zoom="1.6842857"
     inkscape:cx="105.68278"
     inkscape:cy="237.19254"
     inkscape:window-width="1280"
     inkscape:window-height="1403"
     inkscape:window-x="20"
     inkscape:window-y="20"
     inkscape:window-maximized="0"
     inkscape:current-layer="svg112" />
  <defs
     id="defs1">
    <style
       id="style1">.cls-1{opacity:0.22;}.cls-2{fill:#8eb6dc;}.cls-3,.cls-6,.cls-7{fill:none;stroke-linejoin:round;}.cls-3{stroke:#d6d6d6;stroke-width:0.75px;}.cls-4{fill:#5cffd9;}.cls-5{fill:#fff;}.cls-6,.cls-7{stroke:#1470ad;stroke-linecap:round;}.cls-6{stroke-width:0.3px;}</style>
  </defs>
  <title
     id="title1">gentle density diagram</title>
  <g
     id="lot_fill"
     data-name="lot fill"
     class="cls-1"
     transform="translate(0,-56.955709)">
    <polygon
       class="cls-2"
       points="36.66,216.53 219.94,110.71 328.69,173.5 145.4,279.32 "
       id="polygon1" />
  </g>
  <g
     id="lot"
     transform="translate(0,-56.955709)">
    <polyline
       class="cls-3"
       points="67.96 198.46 36.66 216.53 145.4 279.32 328.69 173.5 249.91 128.02"
       id="polyline1" />
    <line
       class="cls-3"
       x1="187.19"
       y1="129.63"
       x2="173.25"
       y2="137.67"
       id="line1" />
  </g>
  <g
     id="_5_addition::house"
     data-name="5 addition::house"
     transform="translate(0,-56.955709)">
    <polygon
       class="cls-4"
       points="83.97,204.71 83.97,222.88 75.04,217.72 75.04,199.55 "
       id="polygon2" />
    <polygon
       class="cls-4"
       points="80.61,182.83 80.61,191.64 75.73,188.83 75.73,180.01 "
       id="polygon3" />
    <polygon
       class="cls-4"
       points="85.49,185.64 85.49,194.46 80.61,191.64 80.61,182.83 "
       id="polygon4" />
    <path
       class="cls-4"
       d="m 92.34,181.12 v 46.59 L 84,222.88 v -18.17 l -9,-5.16 v 18.17 l -7,-4.08 v -46.59 z m -6.85,13.34 v -8.82 L 80.61,182.83 75.73,180 v 8.82 l 4.88,2.81 z"
       id="path4" />
    <polygon
       class="cls-4"
       points="87.86,175.86 92.34,178.44 92.34,178.45 92.34,181.12 67.97,167.05 131.58,130.33 149.15,140.47 "
       id="polygon5" />
    <polygon
       class="cls-4"
       points="246.32,179.08 246.32,208.85 216.61,226 216.61,196.24 "
       id="polygon6" />
    <polygon
       class="cls-4"
       points="216.61,196.24 216.61,176.74 216.61,176.73 221.09,174.15 183.78,145.15 185.66,144.06 246.32,179.08 "
       id="polygon7" />
    <polygon
       class="cls-5"
       points="139.52,210.44 139.52,219.25 134.64,216.44 134.64,207.62 "
       id="polygon8" />
    <polygon
       class="cls-5"
       points="106.28,191.34 106.28,200.01 101.4,197.19 101.4,188.52 "
       id="polygon9" />
    <polygon
       class="cls-5"
       points="106.16,220.23 106.16,228.72 99.71,225 99.71,216.51 "
       id="polygon10" />
    <polygon
       class="cls-5"
       points="106.16,211.74 106.16,220.23 99.71,216.51 99.71,208.01 "
       id="polygon11" />
    <polygon
       class="cls-5"
       points="112.6,223.95 112.6,232.44 106.16,228.72 106.16,220.23 "
       id="polygon12" />
    <polygon
       class="cls-5"
       points="112.6,215.46 112.6,223.95 106.16,220.23 106.16,211.74 "
       id="polygon13" />
    <polygon
       class="cls-5"
       points="134.64,207.62 134.64,216.44 129.76,213.62 129.76,204.8 "
       id="polygon14" />
    <polygon
       class="cls-5"
       points="111.16,194.16 111.16,202.82 106.28,200.01 106.28,191.34 "
       id="polygon15" />
    <polygon
       class="cls-5"
       points="201.06,212.24 205.95,209.42 205.95,218.26 201.06,221.09 201.06,212.25 "
       id="polygon16" />
    <polygon
       class="cls-5"
       points="205.95,189.89 205.95,198.74 201.06,201.56 201.06,192.72 "
       id="polygon17" />
    <polygon
       class="cls-5"
       points="201.06,212.25 201.06,221.09 196.17,223.91 196.17,215.07 "
       id="polygon18" />
    <path
       class="cls-5"
       d="M 216.61,196.24 V 226 L 153,262.73 v -49.27 l 63.62,-36.72 z m -10.66,22 v -8.84 l -4.89,2.82 v 0 l -4.89,2.82 v 8.84 l 4.89,-2.82 z m 0,-19.52 v -8.85 l -4.89,2.83 -4.89,2.82 v 8.84 l 4.89,-2.82 z m -28,35.65 v -8.84 l -4.95,2.84 -4.89,2.82 V 240 l 4.89,-2.83 z m 0,-19.53 V 206 l -4.95,2.84 v 0 l -4.89,2.82 v 8.84 l 4.89,-2.82 z"
       id="path18" />
    <polygon
       class="cls-5"
       points="119.36,242.86 124.64,239.9 129.07,242.46 138,247.62 141.21,249.47 135.93,252.43 "
       id="polygon19" />
    <polygon
       class="cls-5"
       points="201.06,192.72 201.06,201.56 196.17,204.38 196.17,195.54 "
       id="polygon20" />
    <polygon
       class="cls-5"
       points="177.92,225.55 177.92,234.39 173.03,237.21 173.03,228.37 "
       id="polygon21" />
    <polygon
       class="cls-5"
       points="173.03,237.21 168.14,240.04 168.14,231.19 173.03,228.37 "
       id="polygon22" />
    <polygon
       class="cls-5"
       points="173.03,208.84 177.92,206.02 177.92,214.86 173.03,217.69 173.03,208.85 "
       id="polygon23" />
    <polygon
       class="cls-5"
       points="173.03,208.85 173.03,217.69 168.14,220.51 168.14,211.67 "
       id="polygon24" />
    <polygon
       class="cls-5"
       points="87.86,175.86 136.27,159.66 152.99,213.46 92.34,178.45 92.34,178.44 "
       id="polygon25" />
    <polygon
       class="cls-5"
       points="117.02,248.61 133.59,258.18 131.35,259.47 114.78,249.9 "
       id="polygon26" />
    <polygon
       class="cls-5"
       points="133.59,256.02 117.02,246.45 119.43,245.06 135.93,254.59 "
       id="polygon27" />
    <polygon
       class="cls-5"
       points="133.59,256.02 135.93,254.59 135.93,252.43 141.21,249.47 141.21,251.62 141.21,253.78 141.21,255.93 131.35,261.62 131.35,259.47 133.59,258.18 "
       id="polygon28" />
    <polygon
       class="cls-5"
       points="135.93,254.59 119.43,245.06 119.36,245.02 119.36,243.31 119.36,242.86 135.93,252.43 "
       id="polygon29" />
    <polygon
       class="cls-5"
       points="114.78,252.05 114.78,249.9 131.35,259.47 131.35,261.62 "
       id="polygon30" />
    <polygon
       class="cls-5"
       points="133.59,258.18 117.02,248.61 117.02,246.45 133.59,256.02 "
       id="polygon31" />
    <polygon
       class="cls-5"
       points="138,229.51 138,247.62 129.07,242.46 129.07,224.35 "
       id="polygon32" />
    <path
       class="cls-5"
       d="M 106.16,211.74 99.71,208 v 17 l 6.45,3.72 6.44,3.72 v -17 z m 13.2,31.57 -27,-15.6 v -49.26 l 60.65,35 v 49.27 l -11.78,-6.8 v -6.46 L 138,247.62 v -18.11 l -8.93,-5.16 v 18.11 l -4.43,-2.56 -5.28,3 z m 20.16,-24.06 v -8.81 l -4.88,-2.82 -4.88,-2.82 v 8.82 l 4.88,2.82 z m -28.36,-16.43 v -8.66 l -4.88,-2.82 -4.88,-2.82 v 8.67 l 4.88,2.82 z"
       id="path32" />
    <polygon
       class="cls-5"
       points="136.27,159.66 174.24,137.74 183.78,145.15 221.09,174.15 216.61,176.73 216.61,176.74 152.99,213.46 "
       id="polygon33" />
    <polygon
       class="cls-5"
       points="155.95,136.55 174.24,137.74 136.27,159.66 87.86,175.86 149.15,140.47 "
       id="polygon34" />
    <polygon
       class="cls-6"
       points="85.49,194.46 85.49,185.64 80.61,182.83 75.73,180.01 75.73,188.83 80.61,191.64 "
       id="polygon35" />
    <line
       class="cls-6"
       x1="131.58"
       y1="130.33"
       x2="67.970001"
       y2="167.05"
       id="line35" />
    <line
       class="cls-6"
       x1="67.970001"
       y1="167.05"
       x2="92.339996"
       y2="181.12"
       id="line36" />
    <polyline
       class="cls-6"
       points="67.97 213.64 75.04 217.72 83.97 222.88 92.34 227.71"
       id="polyline36" />
    <line
       class="cls-6"
       x1="67.970001"
       y1="213.64"
       x2="67.970001"
       y2="167.05"
       id="line37" />
    <line
       class="cls-6"
       x1="216.61"
       y1="226"
       x2="246.32001"
       y2="208.85001"
       id="line38" />
    <line
       class="cls-6"
       x1="246.32001"
       y1="208.85001"
       x2="246.32001"
       y2="179.08"
       id="line39" />
    <line
       class="cls-6"
       x1="246.32001"
       y1="179.08"
       x2="185.66"
       y2="144.06"
       id="line40" />
    <line
       class="cls-6"
       x1="185.66"
       y1="144.06"
       x2="183.78"
       y2="145.14999"
       id="line41" />
    <line
       class="cls-6"
       x1="216.61"
       y1="196.24001"
       x2="246.32001"
       y2="179.08"
       id="line42" />
    <line
       class="cls-6"
       x1="149.14999"
       y1="140.47"
       x2="131.58"
       y2="130.33"
       id="line43" />
    <line
       class="cls-6"
       x1="80.610001"
       y1="182.83"
       x2="80.610001"
       y2="191.64"
       id="line44" />
    <polyline
       class="cls-6"
       points="75.04 217.73 75.04 217.72 75.04 199.55 83.97 204.71 83.97 222.88"
       id="polyline44" />
    <line
       class="cls-6"
       x1="141.21001"
       y1="253.78"
       x2="141.21001"
       y2="251.62"
       id="line45" />
    <line
       class="cls-6"
       x1="117.02"
       y1="248.61"
       x2="117.02"
       y2="246.45"
       id="line46" />
    <line
       class="cls-6"
       x1="133.59"
       y1="258.17999"
       x2="133.59"
       y2="256.01999"
       id="line47" />
    <line
       class="cls-6"
       x1="117.02"
       y1="248.61"
       x2="133.59"
       y2="258.17999"
       id="line48" />
    <line
       class="cls-6"
       x1="92.339996"
       y1="227.71001"
       x2="119.36"
       y2="243.31"
       id="line49" />
    <line
       class="cls-6"
       x1="152.99001"
       y1="262.73001"
       x2="216.61"
       y2="226"
       id="line50" />
    <polygon
       class="cls-6"
       points="196.17,195.54 196.17,204.38 201.06,201.56 205.95,198.74 205.95,189.89 201.06,192.72 "
       id="polygon50" />
    <line
       class="cls-6"
       x1="114.78"
       y1="252.05"
       x2="131.35001"
       y2="261.62"
       id="line51" />
    <line
       class="cls-6"
       x1="131.35001"
       y1="261.62"
       x2="131.35001"
       y2="259.47"
       id="line52" />
    <line
       class="cls-6"
       x1="114.78"
       y1="252.05"
       x2="114.78"
       y2="249.89999"
       id="line53" />
    <line
       class="cls-6"
       x1="131.35001"
       y1="261.62"
       x2="141.21001"
       y2="255.92999"
       id="line54" />
    <line
       class="cls-6"
       x1="141.21001"
       y1="255.92999"
       x2="141.21001"
       y2="253.78"
       id="line55" />
    <line
       class="cls-6"
       x1="131.35001"
       y1="259.47"
       x2="133.59"
       y2="258.17999"
       id="line56" />
    <line
       class="cls-6"
       x1="114.78"
       y1="249.89999"
       x2="131.35001"
       y2="259.47"
       id="line57" />
    <line
       class="cls-6"
       x1="201.06"
       y1="192.72"
       x2="201.06"
       y2="201.56"
       id="line58" />
    <line
       class="cls-6"
       x1="173.03"
       y1="208.85001"
       x2="173.03"
       y2="217.69"
       id="line59" />
    <polygon
       class="cls-6"
       points="177.92,214.86 177.92,206.02 173.03,208.84 173.03,208.85 168.14,211.67 168.14,220.51 173.03,217.69 "
       id="polygon59" />
    <line
       class="cls-6"
       x1="135.92999"
       y1="254.59"
       x2="135.92999"
       y2="252.42999"
       id="line60" />
    <line
       class="cls-6"
       x1="141.21001"
       y1="251.62"
       x2="141.21001"
       y2="249.47"
       id="line61" />
    <polyline
       class="cls-6"
       points="141.21 249.47 138 247.62 129.07 242.46 124.64 239.9"
       id="polyline61" />
    <line
       class="cls-6"
       x1="124.64"
       y1="239.89999"
       x2="119.36"
       y2="242.86"
       id="line62" />
    <polyline
       class="cls-6"
       points="201.06 212.25 196.17 215.07 196.17 223.91 201.06 221.09 205.95 218.26 205.95 209.42 201.06 212.24"
       id="polyline62" />
    <polyline
       class="cls-6"
       points="201.06 212.24 201.06 212.25 201.06 221.09"
       id="polyline63" />
    <polygon
       class="cls-6"
       points="139.52,219.25 139.52,210.44 134.64,207.62 129.76,204.8 129.76,213.62 134.64,216.44 "
       id="polygon63" />
    <polygon
       class="cls-6"
       points="99.71,216.51 99.71,225 106.16,228.72 112.6,232.44 112.6,223.95 112.6,215.46 106.16,211.74 99.71,208.01 "
       id="polygon64" />
    <polygon
       class="cls-6"
       points="101.4,188.52 101.4,197.19 106.28,200.01 111.16,202.82 111.16,194.16 106.28,191.34 "
       id="polygon65" />
    <line
       class="cls-6"
       x1="134.64"
       y1="207.62"
       x2="134.64"
       y2="216.44"
       id="line65" />
    <polyline
       class="cls-6"
       points="99.71 216.51 106.16 220.23 112.6 223.95"
       id="polyline65" />
    <line
       class="cls-6"
       x1="141.21001"
       y1="255.92999"
       x2="152.99001"
       y2="262.73001"
       id="line66" />
    <line
       class="cls-6"
       x1="119.43"
       y1="245.06"
       x2="117.02"
       y2="246.45"
       id="line67" />
    <polyline
       class="cls-6"
       points="106.16 211.73 106.16 211.74 106.16 220.23 106.16 228.72"
       id="polyline67" />
    <polyline
       class="cls-6"
       points="129.07 242.52 129.07 242.46 129.07 224.35 138 229.51 138 247.62 138 247.68"
       id="polyline68" />
    <line
       class="cls-6"
       x1="117.02"
       y1="248.61"
       x2="114.78"
       y2="249.89999"
       id="line68" />
    <line
       class="cls-6"
       x1="117.02"
       y1="246.45"
       x2="133.59"
       y2="256.01999"
       id="line69" />
    <line
       class="cls-6"
       x1="106.28"
       y1="191.34"
       x2="106.28"
       y2="200.00999"
       id="line70" />
    <polygon
       class="cls-6"
       points="177.92,234.39 177.92,225.55 173.03,228.37 168.14,231.19 168.14,240.04 173.03,237.21 "
       id="polygon70" />
    <line
       class="cls-6"
       x1="133.59"
       y1="256.01999"
       x2="135.92999"
       y2="254.59"
       id="line71" />
    <line
       class="cls-6"
       x1="152.99001"
       y1="213.46001"
       x2="136.27"
       y2="159.66"
       id="line72" />
    <line
       class="cls-6"
       x1="136.27"
       y1="159.66"
       x2="174.24001"
       y2="137.74001"
       id="line73" />
    <polyline
       class="cls-6"
       points="174.24 137.74 183.78 145.15 221.09 174.15"
       id="polyline73" />
    <line
       class="cls-6"
       x1="216.61"
       y1="176.74001"
       x2="152.99001"
       y2="213.46001"
       id="line74" />
    <line
       class="cls-6"
       x1="221.09"
       y1="174.14999"
       x2="216.61"
       y2="176.73"
       id="line75" />
    <line
       class="cls-6"
       x1="87.860001"
       y1="175.86"
       x2="136.27"
       y2="159.66"
       id="line76" />
    <line
       class="cls-6"
       x1="174.24001"
       y1="137.74001"
       x2="155.95"
       y2="136.55"
       id="line77" />
    <polyline
       class="cls-6"
       points="155.95 136.55 149.15 140.47 87.86 175.86"
       id="polyline77" />
    <line
       class="cls-6"
       x1="92.339996"
       y1="178.45"
       x2="152.99001"
       y2="213.46001"
       id="line78" />
    <line
       class="cls-6"
       x1="87.860001"
       y1="175.86"
       x2="92.339996"
       y2="178.44"
       id="line79" />
    <polyline
       class="cls-6"
       points="92.34 227.71 92.34 181.12 92.34 178.45 92.34 178.44"
       id="polyline79" />
    <polyline
       class="cls-6"
       points="216.61 226 216.61 196.24 216.61 176.74 216.61 176.73"
       id="polyline80" />
    <line
       class="cls-6"
       x1="152.99001"
       y1="262.73001"
       x2="152.99001"
       y2="213.46001"
       id="line80" />
    <polyline
       class="cls-6"
       points="119.36 245.02 119.43 245.06 135.93 254.59"
       id="polyline81" />
    <line
       class="cls-6"
       x1="119.36"
       y1="242.86"
       x2="135.92999"
       y2="252.42999"
       id="line81" />
    <polyline
       class="cls-6"
       points="119.36 245.02 119.36 243.31 119.36 242.86"
       id="polyline82" />
    <line
       class="cls-6"
       x1="135.92999"
       y1="252.42999"
       x2="141.21001"
       y2="249.47"
       id="line82" />
    <line
       class="cls-6"
       x1="173.03"
       y1="228.37"
       x2="173.03"
       y2="237.21001"
       id="line83" />
  </g>
  <g
     id="_5_addition::garage"
     data-name="5 addition::garage"
     transform="translate(0,-56.955709)">
    <polygon
       class="cls-5"
       points="214.01,131.78 187.19,116.3 200.6,116.33 "
       id="polygon83" />
    <polygon
       class="cls-5"
       points="189.27,131.98 211.88,145.04 211.88,147.62 189.27,134.56 "
       id="polygon84" />
    <polygon
       class="cls-5"
       points="189.27,131.98 189.27,134.56 189.27,137.22 187.19,136.02 187.19,116.3 214.01,131.78 214.01,151.5 211.87,150.26 211.88,150.24 211.88,147.62 211.88,145.04 211.88,142.46 211.88,139.89 211.88,137.31 211.88,134.73 189.27,121.68 189.27,124.25 189.27,126.83 189.27,129.41 "
       id="polygon85" />
    <polygon
       class="cls-5"
       points="211.88,134.73 211.88,137.31 189.27,124.25 189.27,121.68 "
       id="polygon86" />
    <polygon
       class="cls-5"
       points="189.27,126.83 189.27,124.25 211.88,137.31 211.88,139.89 "
       id="polygon87" />
    <polygon
       class="cls-5"
       points="189.27,131.98 189.27,129.41 211.88,142.46 211.88,145.04 "
       id="polygon88" />
    <polygon
       class="cls-5"
       points="211.88,139.89 211.88,142.46 189.27,129.41 189.27,126.83 "
       id="polygon89" />
    <polygon
       class="cls-5"
       points="211.88,150.24 211.87,150.26 189.27,137.22 189.27,134.56 211.88,147.62 "
       id="polygon90" />
    <polygon
       class="cls-5"
       points="236.5,95.6 200.6,116.33 187.19,116.3 223.09,95.57 "
       id="polygon91" />
    <polygon
       class="cls-5"
       points="249.91,111.05 249.91,130.77 214.01,151.5 214.01,131.78 "
       id="polygon92" />
    <polygon
       class="cls-5"
       points="236.5,95.6 249.91,111.05 214.01,131.78 200.6,116.33 "
       id="polygon93" />
    <line
       class="cls-6"
       x1="214.00999"
       y1="131.78"
       x2="187.19"
       y2="116.3"
       id="line93" />
    <line
       class="cls-6"
       x1="200.60001"
       y1="116.33"
       x2="236.5"
       y2="95.599998"
       id="line94" />
    <line
       class="cls-6"
       x1="249.91"
       y1="130.77"
       x2="249.91"
       y2="111.05"
       id="line95" />
    <line
       class="cls-6"
       x1="249.91"
       y1="111.05"
       x2="214.00999"
       y2="131.78"
       id="line96" />
    <line
       class="cls-6"
       x1="187.19"
       y1="136.02"
       x2="187.19"
       y2="116.3"
       id="line97" />
    <line
       class="cls-6"
       x1="211.88"
       y1="137.31"
       x2="189.27"
       y2="124.25"
       id="line98" />
    <line
       class="cls-6"
       x1="200.60001"
       y1="116.33"
       x2="214.00999"
       y2="131.78"
       id="line99" />
    <line
       class="cls-6"
       x1="236.5"
       y1="95.599998"
       x2="249.91"
       y2="111.05"
       id="line100" />
    <line
       class="cls-6"
       x1="187.19"
       y1="116.3"
       x2="223.09"
       y2="95.57"
       id="line101" />
    <line
       class="cls-6"
       x1="223.09"
       y1="95.57"
       x2="236.5"
       y2="95.599998"
       id="line102" />
    <line
       class="cls-6"
       x1="187.19"
       y1="116.3"
       x2="200.60001"
       y2="116.33"
       id="line103" />
    <line
       class="cls-6"
       x1="214.00999"
       y1="151.5"
       x2="214.00999"
       y2="131.78"
       id="line104" />
    <line
       class="cls-6"
       x1="214.00999"
       y1="151.5"
       x2="249.91"
       y2="130.77"
       id="line105" />
    <polyline
       class="cls-6"
       points="187.19 136.02 189.27 137.22 211.87 150.26 214.01 151.5"
       id="polyline105" />
    <line
       class="cls-6"
       x1="211.88"
       y1="139.89"
       x2="189.27"
       y2="126.83"
       id="line106" />
    <line
       class="cls-6"
       x1="211.88"
       y1="142.46001"
       x2="189.27"
       y2="129.41"
       id="line107" />
    <line
       class="cls-6"
       x1="211.88"
       y1="145.03999"
       x2="189.27"
       y2="131.98"
       id="line108" />
    <line
       class="cls-6"
       x1="211.88"
       y1="147.62"
       x2="189.27"
       y2="134.56"
       id="line109" />
    <polyline
       class="cls-6"
       points="211.88 134.73 189.27 121.68 189.27 124.25 189.27 126.83 189.27 129.41 189.27 131.98 189.27 134.56 189.27 137.22 189.27 137.33"
       id="polyline109" />
    <polyline
       class="cls-6"
       points="211.88 134.7 211.88 134.73 211.88 137.31 211.88 139.89 211.88 142.46 211.88 145.04 211.88 147.62 211.88 150.24"
       id="polyline110" />
  </g>
  <g
     id="outline"
     transform="translate(0,-56.955709)">
    <polygon
       class="cls-7"
       points="216.6,226 216.6,176.74 221.08,174.15 174.24,137.74 155.95,136.55 87.85,175.86 92.33,178.44 92.33,227.71 119.35,243.31 119.35,245.02 119.42,245.06 117.01,246.45 117.01,248.61 114.77,249.9 114.77,252.06 131.35,261.63 141.21,255.93 152.98,262.73 "
       id="polygon110" />
    <polyline
       class="cls-7"
       points="92.33 227.71 67.96 213.64 67.96 167.06 131.58 130.33 149.15 140.47"
       id="polyline111" />
    <polyline
       class="cls-7"
       points="183.78 145.15 185.66 144.06 246.31 179.08 246.31 208.85 216.6 226"
       id="polyline112" />
  </g>
  <metadata
     id="metadata112">
    <rdf:RDF>
      <cc:Work
         rdf:about="">
        <dc:title>gentle density diagram</dc:title>
      </cc:Work>
    </rdf:RDF>
  </metadata>
</svg>
